<?xml version="1.0" encoding="UTF-8"?>
<svg width="382" height="500" version="1.1" viewBox="0 0 382 500" xmlns="http://www.w3.org/2000/svg">
	<path d="m0-7.076e-4v316.01c0.0044772 101.62 85.515 183.99 191 183.99 105.46-2e-3 190.96-82.344 191-183.94l4e-3 -316.06h-382"/>
	<path d="m8.9998 8.9994v79.946h363.99v-79.94s-363.99-6e-3 -363.99-6e-3" fill="#fff"/>
	<g aria-label="IRIS">
		<path d="m45.65 73.907v-4.0469h6.3689v-41.841h-6.3689v-4.0469h25.609v4.0469h-6.4022v41.841h6.4022v4.0469h-25.609"/>
		<path d="m153.31 49.525c1.9784 0.28986 3.6456 0.94765 5.0017 1.9734 1.356 1.0257 2.5342 2.5085 3.5345 4.4483l7.2691 13.914h5.1017v4.0469h-16.372l-7.936-15.084c-1.5338-3.1216-2.8454-5.1061-3.9347-5.9534-1.067-0.86963-2.5564-1.3044-4.4682-1.3044h-2.034v18.295h6.4022v4.0469h-25.609v-4.0469h6.3689v-41.841h-6.3689v-4.0469h28.41c5.7797 0 10.237 1.1706 13.371 3.5118 3.1566 2.3189 4.7349 5.6189 4.7349 9.9 0 3.4784-1.1226 6.2321-3.3678 8.2612-2.223 2.0068-5.5908 3.3-10.103 3.8797l5.4e-4 3.22e-4m-13.838-1.9734h4.3682c3.1122 0 5.5019-0.8473 7.1692-2.5419 1.6895-1.6946 2.5342-4.1138 2.5342-7.2577 0-3.1439-0.84473-5.552-2.5342-7.2243-1.6673-1.6723-4.057-2.5085-7.1692-2.5085h-4.3682v19.532"/>
		<path d="m219.7 73.907v-4.0469h6.3689v-41.841h-6.3689v-4.0469h25.609v4.0469h-6.4022v41.841h6.4022v4.0469h-25.609"/>
		<path d="m296.4 71.498v-11.839h4.2348c0.64467 3.7459 2.1674 6.5443 4.5682 8.395 2.4008 1.8507 5.7241 2.7761 9.9701 2.7761 3.4456 0 6.0688-0.65779 7.8693-1.9734 1.8006-1.3156 2.7009-3.2443 2.7009-5.7861 0-2.0068-0.61133-3.5676-1.834-4.6824-1.2227-1.1149-3.7458-2.1517-7.5693-3.1104l-7.4692-1.8396c-4.8684-1.2486-8.2917-2.9767-10.27-5.1842-1.9784-2.2297-2.9676-5.3959-2.9676-9.4986 0-4.95 1.6339-8.7962 4.9017-11.539 3.29-2.7649 7.8917-4.1473 13.805-4.1473 2.9121 0 5.9354 0.24527 9.0697 0.73581 3.1566 0.49054 6.4244 1.2264 9.8033 2.2074v11.037h-4.2348c-0.64466-3.4338-2.0563-5.9422-4.2348-7.5253-2.1785-1.6054-5.2796-2.4081-9.3032-2.4081-3.29 0-5.7797 0.57973-7.4692 1.7392-1.6673 1.1372-2.5009 2.8429-2.5009 5.1172 0 2.0736 0.57798 3.6567 1.7339 4.7493 1.156 1.0703 3.9903 2.1851 8.5029 3.3446l7.4692 1.8396c4.6238 1.1595 7.9694 2.9655 10.037 5.4182 2.0896 2.4527 3.1344 5.8308 3.1344 10.134 0 5.0392-1.7339 8.8743-5.2018 11.505-3.4678 2.6087-8.5697 3.9131-15.305 3.9131-3.2456 0-6.4689-0.27872-9.67-0.83615-3.2011-0.55743-6.4577-1.4047-9.7699-2.5419l-1.1e-4 -3.75e-4"/>
	</g>
	<path d="m8.9998 97.945v195.84h177.5v-195.84h-177.5" fill="#008000"/>
	<path d="m195.5 97.945v392.84c98.663-2.3464 177.4-79.881 177.5-174.78v-218.05l-177.5-0.01" fill="#00f"/>
	<path d="m8.9998 302.79v13.215c0.054438 94.927 78.805 172.5 177.5 174.85v-188.06l-177.5-5e-3" fill="#ff0"/>
	<ellipse cx="112.36" cy="348.54" rx="6.8394" ry="6.8396"/>
	<g fill="none" stroke="#000" stroke-width="5">
		<path d="m278.53 373.05 0.0126-54.461c-16.027 0-22.484-3.8771-22.484-9.8159 0-9.4029 44.968-21.675 44.968-9.5865 0 11.216-44.968 0.0261-44.968-9.5865 0-9.6128 44.968-21.675 44.968-9.5865 0 11.216-44.968 0.0262-44.968-9.5865 0-9.6128 44.968-20.803 44.968-9.5865 0 12.089-44.968 0.0262-44.968-9.5865 0-9.6128 44.968-20.803 44.968-9.5865 0 12.089-44.968-0.18332-44.968-9.5865 0-5.9384 6.4568-9.8159 22.484-9.8159 0 0-0.0126-91.194-0.0126-91.194"/>
		<path d="m256.75 131.07h43.545l-21.773 39.49z"/>
		<path d="m268.39 409.59h20.262-20.262"/>
		<path d="m262.96 397.65h31.148-31.148"/>
		<path d="m257.51 385.7h42.035-42.035"/>
		<path d="m252.06 373.76h52.921-52.921"/>
		<path d="m273.08 421.53h10.887-10.887"/>
		<path d="m33.069 195.83c15.005-114.36 17.271 114.56 32.34 0 15.069-114.56 17.271 114.56 32.34-1e-5 15.069-114.56 17.271 114.56 32.34-1e-5 15.069-114.56 17.207 114.76 32.34-1e-5"/>
		<path d="m99.433 383.44 29.75 11-38.876 13.5 48.499 13" stroke-linejoin="bevel"/>
		<path d="m133.77 331.12c4.0045 4.9225 6.1907 11.074 6.1906 17.42-2e-5 6.2774-2.1396 12.367-6.0659 17.265"/>
		<path d="m90.789 365.76c-3.9042-4.8908-6.0307-10.963-6.0308-17.221-2.1e-5 -6.3258 2.1726-12.46 6.1544-17.375"/>
		<path d="m146.04 321.05c6.3324 7.761 9.7909 17.47 9.7908 27.487 7e-5 9.8549-3.3477 19.417-9.4946 27.12"/>
		<path d="m78.344 375.62c-6.1256-7.6957-9.4607-17.241-9.4608-27.077 2.3e-5 -9.9968 3.4449-19.688 9.7544-27.442"/>
		<path d="m79.436 436.94s32.88-88.212 32.88-88.212 32.88 88.299 32.88 88.299"/>
	</g>
</svg>
