<?xml version="1.0" encoding="UTF-8" standalone="no"?>
<!-- Created with Inkscape (http://www.inkscape.org/) -->

<svg
   xmlns:dc="http://purl.org/dc/elements/1.1/"
   xmlns:cc="http://creativecommons.org/ns#"
   xmlns:rdf="http://www.w3.org/1999/02/22-rdf-syntax-ns#"
   xmlns:svg="http://www.w3.org/2000/svg"
   xmlns="http://www.w3.org/2000/svg"
   xmlns:sodipodi="http://sodipodi.sourceforge.net/DTD/sodipodi-0.dtd"
   xmlns:inkscape="http://www.inkscape.org/namespaces/inkscape"
   width="94.55365mm"
   height="123.61054mm"
   viewBox="0 0 94.553647 123.61054"
   version="1.1"
   id="svg8"
   inkscape:version="0.92.4 5da689c313, 2019-01-14"
   sodipodi:docname="schild.svg">
  <defs
     id="defs2" />
  <sodipodi:namedview
     id="base"
     pagecolor="#ffffff"
     bordercolor="#666666"
     borderopacity="1.0"
     inkscape:pageopacity="0.0"
     inkscape:pageshadow="2"
     inkscape:zoom="1.4"
     inkscape:cx="-146.34492"
     inkscape:cy="256.19239"
     inkscape:document-units="mm"
     inkscape:current-layer="layer1"
     showgrid="false"
     inkscape:window-width="1920"
     inkscape:window-height="1061"
     inkscape:window-x="0"
     inkscape:window-y="0"
     inkscape:window-maximized="0" />
  <metadata
     id="metadata5">
    <rdf:RDF>
      <cc:Work
         rdf:about="">
        <dc:format>image/svg+xml</dc:format>
        <dc:type
           rdf:resource="http://purl.org/dc/dcmitype/StillImage" />
        <dc:title />
      </cc:Work>
    </rdf:RDF>
  </metadata>
  <g
     inkscape:label="Layer 1"
     inkscape:groupmode="layer"
     id="layer1"
     transform="translate(-44.46837,-105.17985)">
    <rect
       style="fill:#ffffff;fill-opacity:1;stroke:none;stroke-width:20;stroke-linecap:butt;stroke-linejoin:round;stroke-miterlimit:4;stroke-dasharray:none;stroke-opacity:1;paint-order:normal"
       id="rect837"
       width="90.222923"
       height="20.372921"
       x="46.417885"
       y="107.29652" />
    <path
       style="fill:#0000ff;stroke:#0000ee;stroke-width:1.8897638;stroke-linecap:butt;stroke-linejoin:round;stroke-miterlimit:4;stroke-dasharray:none;stroke-opacity:1;paint-order:normal"
       d="m 182.92016,422.32784 c -0.001,-20.19328 0.51684,-68.05433 1.15114,-106.3579 1.12451,-67.90715 1.01682,-189.30588 -0.18993,-214.10715 l -0.4605,-9.464282 h 82.65599 82.65598 l -0.52599,1.607142 c -0.28929,0.883929 -0.39131,42.10714 -0.22671,91.60714 0.40518,121.8425 0.40868,121.42925 -1.10282,129.99456 -9.15763,51.8939 -43.41681,98.45331 -91.09789,123.80514 -19.28834,10.25553 -45.67164,17.94233 -65.89286,19.19795 l -6.96428,0.43244 z"
       id="path2169"
       inkscape:connector-curvature="0"
       transform="matrix(0.26458333,0,0,0.26458333,44.46837,105.17985)" />
    <g
       id="g3177"
       transform="matrix(-0.26458333,0,0,0.26458333,187.45039,71.279533)">
      <path
         inkscape:connector-curvature="0"
         id="path3173"
         d="m 279.35334,489.15667 -0.0134,-57.91231 c 17.09506,0 23.98197,-4.12279 23.98197,-10.43755 0,-9.99884 -47.96392,-23.04884 -47.96392,-10.19379 0,11.92743 47.9639,0.0278 47.9639,-10.19382 0,-10.22164 -47.9639,-23.04885 -47.9639,-10.19377 0,11.92744 47.9639,0.0278 47.9639,-10.19381 0,-10.22164 -47.9639,-22.12125 -47.9639,-10.19381 0,12.85509 47.9639,0.0279 47.9639,-10.19377 0,-10.22164 -47.9639,-22.12125 -47.9639,-10.19382 0,12.85505 47.96392,-0.19494 47.96392,-10.19379 0,-6.31476 -6.88689,-10.43755 -23.98197,-10.43755 l 0.0134,-96.97334"
         style="fill:none;fill-opacity:0.75;fill-rule:evenodd;stroke:#000000;stroke-width:6.42363024;stroke-linecap:butt;stroke-linejoin:miter;stroke-miterlimit:4;stroke-opacity:1" />
      <path
         inkscape:connector-curvature="0"
         id="path3171"
         d="m 302.5766,231.84554 h -46.4465 l 23.22327,41.99273 z"
         style="fill:none;fill-opacity:0.75;fill-rule:evenodd;stroke:#000000;stroke-width:6.42363024;stroke-linecap:butt;stroke-linejoin:miter;stroke-miterlimit:4;stroke-opacity:1" />
      <path
         inkscape:connector-curvature="0"
         id="path3169"
         d="M 290.15916,528.01807 H 268.54753 Z"
         style="fill:none;fill-opacity:0.75;fill-rule:evenodd;stroke:#000000;stroke-width:6.42363024;stroke-linecap:butt;stroke-linejoin:miter;stroke-miterlimit:4;stroke-opacity:1" />
      <path
         inkscape:connector-curvature="0"
         id="path3167"
         d="M 295.96499,515.31847 H 262.7417 Z"
         style="fill:none;fill-opacity:0.75;fill-rule:evenodd;stroke:#000000;stroke-width:6.42363024;stroke-linecap:butt;stroke-linejoin:miter;stroke-miterlimit:4;stroke-opacity:1" />
      <path
         inkscape:connector-curvature="0"
         id="path3165"
         d="M 301.77077,502.61887 H 256.93593 Z"
         style="fill:none;fill-opacity:0.75;fill-rule:evenodd;stroke:#000000;stroke-width:6.42363024;stroke-linecap:butt;stroke-linejoin:miter;stroke-miterlimit:4;stroke-opacity:1" />
      <path
         inkscape:connector-curvature="0"
         id="path3140"
         d="M 307.5766,489.91927 H 251.1301 Z"
         style="fill:none;fill-opacity:0.75;fill-rule:evenodd;stroke:#000000;stroke-width:6.42363024;stroke-linecap:butt;stroke-linejoin:miter;stroke-miterlimit:4;stroke-opacity:1" />
      <path
         inkscape:connector-curvature="0"
         sodipodi:nodetypes="ccc"
         style="fill:none;fill-opacity:0.75;fill-rule:evenodd;stroke:#000000;stroke-width:6.42363024;stroke-linecap:butt;stroke-linejoin:miter;stroke-miterlimit:4;stroke-opacity:1"
         d="M 285.15916,540.71767 H 273.54753 Z"
         id="path3175" />
    </g>
    <path
       style="fill:#008000;stroke:#008000;stroke-width:1.8897638;stroke-linecap:butt;stroke-linejoin:round;stroke-miterlimit:4;stroke-dasharray:none;stroke-opacity:1;paint-order:normal"
       d="M 8.4971208,182.7125 V 91.217955 l 83.3928572,0.513179 c 45.866072,0.282249 83.428932,0.553007 83.473022,0.601685 0.0441,0.04868 0.27345,40.990291 0.50968,90.981361 l 0.42951,90.89286 H 92.399657 8.4971208 Z"
       id="path2165"
       inkscape:connector-curvature="0"
       transform="matrix(0.26458333,0,0,0.26458333,44.46837,105.17985)" />
    <path
       id="path291"
       style="fill:#000000;stroke-width:0.26458335"
       d="m 85.973095,228.60167 c -22.35044,-3.10088 -39.12605,-19.92808 -41.27403,-41.40099 -0.20159,-2.01524 -0.26686,-15.07661 -0.2122,-42.46562 l 0.0789,-39.55521 h 47.22813 47.228115 v 41.67187 41.67188 l -0.6096,2.77812 c -2.14189,9.76111 -6.51219,17.69899 -13.35676,24.26014 -6.76091,6.48095 -14.66453,10.53886 -24.41865,12.53713 -2.996565,0.61388 -11.709565,0.91257 -14.663945,0.50268 z m 5.13107,-2.2643 c 0.20988,-0.54693 0.443741,-40.83151 0.26727,-46.92428 -22.65563,0.0158 0.0084,-0.0176 -22.65563,-0.0176 h -22.22776 l 0.12849,4.29948 c 0.11128,3.72355 0.24191,4.7362 0.97525,7.55971 2.18486,8.41222 5.92913,15.10616 11.92217,21.31425 6.97277,7.22298 15.81605,11.91098 25.79768,13.67586 3.493,0.61761 5.57827,0.65095 5.79253,0.0926 z m 8.59514,-0.40755 c 18.269125,-3.51994 32.990675,-18.2592 36.523865,-36.56781 0.43058,-2.23121 0.54993,-3.88031 0.54993,-7.59872 0,-2.61199 -0.0893,-4.74452 -0.19844,-4.73895 0.0661,-49.3549 -0.381,-17.38448 0.13919,-47.46565 -28.16679,-0.17239 -18.02691,0.15763 -43.719938,0.007 1.02112,49.03787 -0.408766,57.06575 -0.207747,97.04169 0.27558,0.28339 3.63537,-0.0458 6.91319,-0.67734 z m -8.69912,-72.2966 v -24.17476 c -44.365577,-0.173 14.133035,0.0375 -44.365577,-0.173 0,0 -0.08443,2.53577 -0.08443,24.34167 v 24.18106 h 22.225 22.525688 z M 136.64081,117.48298 V 107.29652 H 91.529345 46.417885 l -0.0694,9.92093 c -0.0382,5.45652 -0.012,10.07053 0.0581,10.25337 0.10185,0.26541 9.21017,0.31894 45.18089,0.26552 l 45.053335,-0.0669 z"
       inkscape:connector-curvature="0"
       sodipodi:nodetypes="cscccccccscccccscscssccsscccccccccsccccccccccscc" />
    <path
       id="path2154"
       title="sin(x)"
       d="m 51.509092,151.21738 c 0.0107,-0.0695 0.0214,-0.13897 0.0321,-0.20843 0.0107,-0.0694 0.0214,-0.13889 0.0321,-0.20828 0.0107,-0.0694 0.0214,-0.13874 0.0321,-0.20803 0.0107,-0.0693 0.0214,-0.1385 0.0321,-0.20763 0.0107,-0.0691 0.0214,-0.13817 0.03211,-0.2071 0.0107,-0.0689 0.0214,-0.13775 0.0321,-0.20644 0.0107,-0.0687 0.0214,-0.13725 0.0321,-0.20566 0.0107,-0.0684 0.0214,-0.13666 0.0321,-0.20474 0.0107,-0.0681 0.0214,-0.13598 0.03211,-0.20369 0.0107,-0.0677 0.0214,-0.13521 0.0321,-0.20251 0.0107,-0.0673 0.0214,-0.13437 0.0321,-0.2012 0.0107,-0.0668 0.0214,-0.13344 0.0321,-0.19978 0.0107,-0.0663 0.0214,-0.13242 0.0321,-0.19821 0.0107,-0.0658 0.0214,-0.13132 0.03211,-0.19653 0.0107,-0.0652 0.0214,-0.13013 0.0321,-0.19472 0.0107,-0.0646 0.0214,-0.12887 0.0321,-0.19279 0.0107,-0.0639 0.0214,-0.12752 0.0321,-0.19074 0.0107,-0.0632 0.0214,-0.12608 0.03211,-0.18856 0.0107,-0.0625 0.0214,-0.12457 0.0321,-0.18626 0.0107,-0.0617 0.0214,-0.12299 0.0321,-0.18386 0.0107,-0.0609 0.0214,-0.12132 0.0321,-0.18132 0.0107,-0.06 0.0214,-0.11958 0.0321,-0.17869 0.0107,-0.0591 0.0214,-0.11775 0.03211,-0.17592 0.0107,-0.0582 0.0214,-0.11586 0.0321,-0.17306 0.0107,-0.0572 0.0214,-0.11389 0.0321,-0.17008 0.0107,-0.0562 0.0214,-0.11186 0.0321,-0.167 0.0107,-0.0551 0.0214,-0.10974 0.03211,-0.1638 0.0107,-0.0541 0.0214,-0.10757 0.0321,-0.16051 0.0107,-0.053 0.0214,-0.10532 0.0321,-0.15712 0.0107,-0.0518 0.0214,-0.103 0.0321,-0.15362 0.0107,-0.0506 0.0214,-0.10063 0.0321,-0.15003 0.0107,-0.0494 0.0214,-0.0982 0.03211,-0.14634 0.0107,-0.0481 0.0214,-0.0957 0.0321,-0.14256 0.0107,-0.0469 0.0214,-0.0931 0.03211,-0.13869 0.0107,-0.0456 0.0214,-0.0905 0.0321,-0.13473 0.0107,-0.0442 0.0214,-0.0878 0.0321,-0.13069 0.0107,-0.0429 0.0214,-0.0851 0.0321,-0.12656 0.0107,-0.0415 0.0214,-0.0823 0.0321,-0.12236 0.0107,-0.0401 0.0214,-0.0794 0.0321,-0.11807 0.0107,-0.0386 0.0214,-0.0765 0.0321,-0.11372 0.0107,-0.0372 0.0214,-0.0736 0.0321,-0.10928 0.0107,-0.0357 0.0214,-0.0706 0.0321,-0.10479 0.0107,-0.0342 0.0214,-0.0676 0.0321,-0.10022 0.0107,-0.0326 0.0214,-0.0645 0.0321,-0.0956 0.0107,-0.0311 0.0214,-0.0614 0.0321,-0.0909 0.0107,-0.0295 0.0214,-0.0582 0.0321,-0.0862 0.0107,-0.0279 0.0214,-0.055 0.0321,-0.0814 0.0107,-0.0263 0.0214,-0.0518 0.0321,-0.0765 0.0107,-0.0247 0.0214,-0.0486 0.0321,-0.0716 0.0107,-0.023 0.0214,-0.0453 0.0321,-0.0666 0.0107,-0.0214 0.0214,-0.0419 0.0321,-0.0617 0.0107,-0.0197 0.0214,-0.0386 0.0321,-0.0566 0.0107,-0.018 0.0214,-0.0352 0.0321,-0.0516 0.0107,-0.0164 0.0214,-0.0318 0.0321,-0.0465 0.0107,-0.0146 0.0214,-0.0284 0.0321,-0.0413 0.0107,-0.0129 0.0214,-0.025 0.0321,-0.0362 0.0107,-0.0112 0.0214,-0.0215 0.0321,-0.031 0.0107,-0.009 0.0214,-0.0181 0.0321,-0.0258 0.0107,-0.008 0.0214,-0.0146 0.0321,-0.0206 0.0107,-0.006 0.0214,-0.0111 0.0321,-0.0154 0.0107,-0.004 0.0214,-0.008 0.0321,-0.0102 0.0107,-0.003 0.0214,-0.004 0.0321,-0.005 0.0107,-7.6e-4 0.0214,-6.5e-4 0.0321,3.3e-4 0.0107,9.8e-4 0.0214,0.003 0.0321,0.006 0.0107,0.003 0.0214,0.006 0.0321,0.0108 0.0107,0.004 0.0214,0.01 0.0321,0.016 0.0107,0.006 0.0214,0.0133 0.0321,0.0213 0.0107,0.008 0.0214,0.0168 0.0321,0.0265 0.0107,0.01 0.0214,0.0202 0.0321,0.0317 0.0107,0.0114 0.0214,0.0237 0.0321,0.0368 0.0107,0.0131 0.0214,0.0271 0.0321,0.042 0.0107,0.0148 0.0214,0.0306 0.0321,0.0471 0.0107,0.0166 0.0214,0.034 0.0321,0.0522 0.0107,0.0182 0.0214,0.0373 0.0321,0.0573 0.0107,0.0199 0.0214,0.0407 0.0321,0.0623 0.0107,0.0216 0.0214,0.044 0.0321,0.0673 0.0107,0.0233 0.0214,0.0473 0.0321,0.0722 0.0107,0.0249 0.0214,0.0506 0.0321,0.0771 0.0107,0.0265 0.0214,0.0538 0.03211,0.082 0.0107,0.0281 0.0214,0.057 0.0321,0.0868 0.0107,0.0297 0.0214,0.0602 0.03211,0.0915 0.0107,0.0313 0.0214,0.0633 0.0321,0.0962 0.0107,0.0328 0.0214,0.0664 0.03211,0.10079 0.0107,0.0344 0.0214,0.0695 0.0321,0.10536 0.0107,0.0359 0.0214,0.0725 0.0321,0.10984 0.0107,0.0374 0.0214,0.0754 0.0321,0.11426 0.0107,0.0388 0.0214,0.0784 0.0321,0.11861 0.0107,0.0403 0.0214,0.0812 0.03211,0.12289 0.0107,0.0417 0.0214,0.084 0.0321,0.12708 0.0107,0.0431 0.0214,0.0868 0.03211,0.1312 0.0107,0.0444 0.0214,0.0895 0.0321,0.13523 0.0107,0.0457 0.0214,0.0921 0.03211,0.13918 0.0107,0.047 0.0214,0.0947 0.0321,0.14304 0.0107,0.0483 0.0214,0.0973 0.03211,0.14681 0.0107,0.0495 0.0214,0.0997 0.0321,0.15048 0.0107,0.0508 0.0214,0.10212 0.0321,0.15406 0.0107,0.0519 0.0214,0.10446 0.0321,0.15755 0.0107,0.0531 0.0214,0.10673 0.0321,0.16093 0.0107,0.0542 0.0214,0.10893 0.0321,0.16421 0.0107,0.0553 0.0214,0.11107 0.0321,0.16738 0.0107,0.0563 0.0214,0.11314 0.0321,0.17046 0.0107,0.0573 0.0214,0.11514 0.0321,0.17343 0.0107,0.0583 0.0214,0.11705 0.03211,0.17627 0.0107,0.0592 0.0214,0.1189 0.0321,0.17902 0.0107,0.0601 0.0214,0.12067 0.0321,0.18165 0.0107,0.061 0.0214,0.12237 0.0321,0.18416 0.0107,0.0618 0.0214,0.12399 0.0321,0.18656 0.0107,0.0626 0.0214,0.12552 0.0321,0.18884 0.0107,0.0633 0.0214,0.12698 0.0321,0.191 0.0107,0.064 0.0214,0.12836 0.0321,0.19303 0.0107,0.0647 0.0214,0.12967 0.0321,0.19496 0.0107,0.0653 0.0214,0.13088 0.0321,0.19674 0.0107,0.0659 0.0214,0.13202 0.0321,0.19842 0.0107,0.0664 0.0214,0.13306 0.0321,0.19996 0.0107,0.0669 0.0214,0.13403 0.0321,0.20138 0.0107,0.0673 0.0214,0.13491 0.0321,0.20266 0.0107,0.0678 0.0214,0.13571 0.0321,0.20383 0.0107,0.0681 0.0214,0.13642 0.0321,0.20486 0.0107,0.0684 0.0214,0.13704 0.0321,0.20576 0.0107,0.0687 0.0214,0.13758 0.0321,0.20654 0.0107,0.069 0.0214,0.13802 0.0321,0.20717 0.0107,0.0692 0.0214,0.13839 0.0321,0.20769 0.0107,0.0693 0.0214,0.13866 0.0321,0.20806 0.0107,0.0694 0.0214,0.13885 0.0321,0.20831 0.0107,0.0695 0.0214,0.13895 0.0321,0.20843 0.0107,0.0695 0.0214,0.13896 0.0321,0.20841 0.0107,0.0695 0.0214,0.13888 0.0321,0.20826 0.0107,0.0694 0.0214,0.13872 0.0321,0.20799 0.0107,0.0693 0.0214,0.13846 0.0321,0.20757 0.0107,0.0691 0.0214,0.13812 0.0321,0.20702 0.0107,0.0689 0.0214,0.1377 0.0321,0.20636 0.0107,0.0686 0.0214,0.13718 0.0321,0.20554 0.0107,0.0684 0.0214,0.13658 0.0321,0.20462 0.0107,0.068 0.0214,0.13589 0.0321,0.20355 0.0107,0.0677 0.0214,0.13511 0.0321,0.20235 0.0107,0.0672 0.0214,0.13426 0.0321,0.20104 0.0107,0.0668 0.0214,0.13331 0.0321,0.19958 0.0107,0.0663 0.0214,0.13229 0.0321,0.19801 0.0107,0.0657 0.0214,0.13118 0.0321,0.19632 0.0107,0.0651 0.0214,0.12997 0.0321,0.19448 0.0107,0.0645 0.0214,0.1287 0.0321,0.19254 0.0107,0.0638 0.0214,0.12734 0.0321,0.19047 0.0107,0.0631 0.0214,0.1259 0.0321,0.18828 0.0107,0.0624 0.0214,0.12438 0.0321,0.18597 0.0107,0.0616 0.0214,0.12278 0.0321,0.18354 0.0107,0.0608 0.0214,0.12111 0.0321,0.18101 0.0107,0.0599 0.0214,0.11935 0.0321,0.17834 0.0107,0.059 0.0214,0.11752 0.0321,0.17557 0.0107,0.0581 0.0214,0.11562 0.0321,0.17269 0.0107,0.0571 0.0214,0.11365 0.0321,0.16971 0.0107,0.056 0.0214,0.11159 0.0321,0.1666 0.0107,0.055 0.0214,0.10948 0.0321,0.1634 0.0107,0.0539 0.0214,0.10729 0.0321,0.16009 0.0107,0.0528 0.0214,0.10503 0.0321,0.15668 0.0107,0.0516 0.0214,0.10272 0.0321,0.15318 0.0107,0.0505 0.0214,0.10033 0.0321,0.14957 0.0107,0.0493 0.0214,0.0979 0.0321,0.14587 0.0107,0.048 0.0214,0.0954 0.0321,0.14209 0.0107,0.0467 0.0214,0.0928 0.0321,0.1382 0.0107,0.0454 0.0214,0.0902 0.0321,0.13423 0.0107,0.0441 0.0214,0.0875 0.0321,0.13018 0.0107,0.0427 0.0214,0.0847 0.03211,0.12604 0.0107,0.0413 0.0214,0.0819 0.0321,0.12182 0.0107,0.0399 0.0214,0.0791 0.03211,0.11754 0.0107,0.0385 0.0214,0.0762 0.0321,0.11316 0.0107,0.037 0.0214,0.0732 0.0321,0.10873 0.0107,0.0355 0.0214,0.0702 0.0321,0.10421 0.0107,0.034 0.0214,0.0672 0.0321,0.0996 0.0107,0.0324 0.0214,0.0641 0.0321,0.095 0.0107,0.0309 0.0214,0.061 0.0321,0.0903 0.0107,0.0293 0.0214,0.0578 0.03211,0.0855 0.0107,0.0277 0.0214,0.0546 0.0321,0.0807 0.0107,0.0261 0.0214,0.0514 0.03211,0.0759 0.0107,0.0245 0.0214,0.0481 0.0321,0.071 0.0107,0.0228 0.0214,0.0448 0.03211,0.066 0.0107,0.0212 0.0214,0.0415 0.0321,0.061 0.0107,0.0195 0.0214,0.0382 0.03211,0.056 0.0107,0.0178 0.0214,0.0348 0.0321,0.0509 0.0107,0.0161 0.0214,0.0314 0.03211,0.0458 0.0107,0.0144 0.0214,0.028 0.0321,0.0407 0.0107,0.0127 0.0214,0.0246 0.0321,0.0356 0.0107,0.011 0.0214,0.0211 0.0321,0.0304 0.0107,0.009 0.0214,0.0177 0.0321,0.0252 0.0107,0.008 0.0214,0.0142 0.03211,0.02 0.0107,0.006 0.0214,0.0107 0.0321,0.0147 0.0107,0.004 0.0214,0.007 0.03211,0.01 0.0107,0.002 0.0214,0.004 0.0321,0.004 0.0107,5.5e-4 0.0214,2.2e-4 0.03211,-9.8e-4 0.0107,-0.001 0.0214,-0.003 0.0321,-0.006 0.0107,-0.003 0.0214,-0.007 0.0321,-0.0115 0.0107,-0.005 0.0214,-0.0103 0.0321,-0.0167 0.0107,-0.006 0.0214,-0.0137 0.0321,-0.0219 0.0107,-0.008 0.0214,-0.0172 0.0321,-0.0271 0.0107,-0.01 0.0214,-0.0207 0.0321,-0.0323 0.0107,-0.0116 0.0214,-0.0241 0.0321,-0.0375 0.0107,-0.0134 0.0214,-0.0276 0.0321,-0.0426 0.0107,-0.0151 0.0214,-0.031 0.0321,-0.0478 0.0107,-0.0168 0.0214,-0.0344 0.0321,-0.0528 0.0107,-0.0185 0.0214,-0.0378 0.0321,-0.0579 0.0107,-0.0201 0.0214,-0.0411 0.0321,-0.0629 0.0107,-0.0218 0.0214,-0.0444 0.0321,-0.0679 0.0107,-0.0234 0.0214,-0.0477 0.0321,-0.0728 0.0107,-0.0251 0.0214,-0.051 0.0321,-0.0777 0.0107,-0.0267 0.0214,-0.0542 0.0321,-0.0826 0.0107,-0.0283 0.0214,-0.0574 0.0321,-0.0873 0.0107,-0.0299 0.0214,-0.0606 0.0321,-0.0921 0.0107,-0.0315 0.0214,-0.0637 0.0321,-0.0968 0.0107,-0.033 0.0214,-0.0668 0.0321,-0.10136 0.0107,-0.0346 0.0214,-0.0699 0.0321,-0.10592 0.0107,-0.0361 0.0214,-0.0729 0.0321,-0.1104 0.0107,-0.0375 0.0214,-0.0758 0.0321,-0.11481 0.0107,-0.039 0.0214,-0.0787 0.0321,-0.11915 0.0107,-0.0404 0.0214,-0.0816 0.0321,-0.12342 0.0107,-0.0418 0.0214,-0.0844 0.0321,-0.1276 0.0107,-0.0432 0.0214,-0.0871 0.0321,-0.13171 0.0107,-0.0446 0.0214,-0.0898 0.0321,-0.13573 0.0107,-0.0459 0.0214,-0.0925 0.0321,-0.13966 0.0107,-0.0472 0.0214,-0.095 0.0321,-0.14352 0.0107,-0.0485 0.0214,-0.0976 0.0321,-0.14727 0.0107,-0.0497 0.0214,-0.10002 0.0321,-0.15093 0.0107,-0.0509 0.0214,-0.10242 0.0321,-0.15451 0.0107,-0.0521 0.0214,-0.10475 0.0321,-0.15797 0.0107,-0.0532 0.0214,-0.10701 0.03211,-0.16135 0.0107,-0.0543 0.0214,-0.1092 0.0321,-0.16461 0.0107,-0.0554 0.0214,-0.11133 0.0321,-0.16778 0.0107,-0.0564 0.0214,-0.11339 0.0321,-0.17083 0.0107,-0.0574 0.0214,-0.11538 0.0321,-0.17379 0.0107,-0.0584 0.0214,-0.11729 0.0321,-0.17662 0.0107,-0.0593 0.0214,-0.11913 0.0321,-0.17935 0.0107,-0.0602 0.0214,-0.12089 0.03211,-0.18197 0.0107,-0.0611 0.0214,-0.12258 0.0321,-0.18447 0.0107,-0.0619 0.0214,-0.12418 0.0321,-0.18685 0.0107,-0.0627 0.0214,-0.12571 0.0321,-0.18912 0.0107,-0.0634 0.0214,-0.12716 0.0321,-0.19126 0.0107,-0.0641 0.0214,-0.12853 0.0321,-0.19328 0.0107,-0.0648 0.0214,-0.12982 0.03211,-0.19518 0.0107,-0.0654 0.0214,-0.13103 0.0321,-0.19697 0.0107,-0.0659 0.0214,-0.13215 0.0321,-0.19861 0.0107,-0.0665 0.0214,-0.13319 0.0321,-0.20015 0.0107,-0.0669 0.0214,-0.13414 0.0321,-0.20154 0.0107,-0.0674 0.0214,-0.13502 0.0321,-0.20282 0.0107,-0.0678 0.0214,-0.1358 0.0321,-0.20396 0.0107,-0.0682 0.0214,-0.1365 0.0321,-0.20498 0.0107,-0.0685 0.0214,-0.13711 0.0321,-0.20587 0.0107,-0.0687 0.0214,-0.13763 0.0321,-0.20662 0.0107,-0.069 0.0214,-0.13807 0.0321,-0.20725 0.0107,-0.0692 0.0214,-0.13842 0.0321,-0.20774 0.0107,-0.0693 0.0214,-0.13869 0.0321,-0.2081 0.0107,-0.0694 0.0214,-0.13886 0.0321,-0.20833 0.0107,-0.0695 0.0214,-0.13896 0.0321,-0.20844 0.0107,-0.0695 0.0214,-0.13895 0.0321,-0.20839 0.0107,-0.0694 0.0214,-0.13887 0.0321,-0.20824 0.0107,-0.0694 0.0214,-0.13869 0.0321,-0.20794 0.0107,-0.0693 0.0214,-0.13842 0.03211,-0.20751 0.0107,-0.0691 0.0214,-0.13807 0.0321,-0.20695 0.0107,-0.0689 0.0214,-0.13763 0.0321,-0.20626 0.0107,-0.0686 0.0214,-0.13711 0.0321,-0.20544 0.0107,-0.0683 0.0214,-0.13649 0.0321,-0.20448 0.0107,-0.068 0.0214,-0.1358 0.0321,-0.20341 0.0107,-0.0676 0.0214,-0.13501 0.03211,-0.2022 0.0107,-0.0672 0.0214,-0.13414 0.0321,-0.20086 0.0107,-0.0667 0.0214,-0.13319 0.0321,-0.19939 0.0107,-0.0662 0.0214,-0.13215 0.0321,-0.19781 0.0107,-0.0657 0.0214,-0.13102 0.03211,-0.19609 0.0107,-0.0651 0.0214,-0.12982 0.0321,-0.19425 0.0107,-0.0644 0.0214,-0.12853 0.0321,-0.19228 0.0107,-0.0638 0.0214,-0.12717 0.0321,-0.19021 0.0107,-0.063 0.0214,-0.12571 0.0321,-0.18799 0.0107,-0.0623 0.0214,-0.12419 0.03211,-0.18568 0.0107,-0.0615 0.0214,-0.12257 0.0321,-0.18323 0.0107,-0.0607 0.0214,-0.12089 0.0321,-0.18068 0.0107,-0.0598 0.0214,-0.11912 0.0321,-0.178 0.0107,-0.0589 0.0214,-0.11729 0.03211,-0.17522 0.0107,-0.0579 0.0214,-0.11538 0.0321,-0.17232 0.0107,-0.057 0.0214,-0.11339 0.03211,-0.16932 0.0107,-0.0559 0.0214,-0.11134 0.0321,-0.16621 0.0107,-0.0549 0.0214,-0.10921 0.0321,-0.16299 0.0107,-0.0538 0.0214,-0.10701 0.0321,-0.15967 0.0107,-0.0527 0.0214,-0.10475 0.03211,-0.15625 0.0107,-0.0515 0.0214,-0.10242 0.0321,-0.15274 0.0107,-0.0503 0.0214,-0.10002 0.0321,-0.14911 0.0107,-0.0491 0.0214,-0.0976 0.03211,-0.1454 0.0107,-0.0478 0.0214,-0.095 0.0321,-0.14161 0.0107,-0.0465 0.0214,-0.0925 0.0321,-0.1377 0.0107,-0.0452 0.0214,-0.0898 0.0321,-0.13373 0.0107,-0.0439 0.0214,-0.0871 0.0321,-0.12967 0.0107,-0.0425 0.0214,-0.0844 0.0321,-0.12552 0.0107,-0.0411 0.0214,-0.0816 0.0321,-0.12129 0.0107,-0.0397 0.0214,-0.0787 0.0321,-0.11699 0.0107,-0.0383 0.0214,-0.0758 0.0321,-0.11262 0.0107,-0.0368 0.0214,-0.0729 0.0321,-0.10816 0.0107,-0.0353 0.0214,-0.0699 0.0321,-0.10365 0.0107,-0.0338 0.0214,-0.0668 0.0321,-0.0991 0.0107,-0.0323 0.0214,-0.0637 0.0321,-0.0944 0.0107,-0.0307 0.0214,-0.0606 0.0321,-0.0897 0.0107,-0.0291 0.0214,-0.0574 0.0321,-0.085 0.0107,-0.0275 0.0214,-0.0542 0.0321,-0.0802 0.0107,-0.0259 0.0214,-0.051 0.0321,-0.0753 0.0107,-0.0243 0.0214,-0.0477 0.0321,-0.0704 0.0107,-0.0226 0.0214,-0.0444 0.0321,-0.0654 0.0107,-0.021 0.0214,-0.0411 0.0321,-0.0604 0.0107,-0.0193 0.0214,-0.0378 0.0321,-0.0554 0.0107,-0.0176 0.0214,-0.0344 0.0321,-0.0503 0.0107,-0.0159 0.0214,-0.031 0.0321,-0.0452 0.0107,-0.0142 0.0214,-0.0276 0.0321,-0.0401 0.0107,-0.0125 0.0214,-0.0241 0.0321,-0.0349 0.0107,-0.0108 0.0214,-0.0207 0.0321,-0.0297 0.0107,-0.009 0.0214,-0.0172 0.0321,-0.0245 0.0107,-0.007 0.0214,-0.0137 0.0321,-0.0193 0.0107,-0.006 0.0214,-0.0103 0.0321,-0.0141 0.0107,-0.004 0.0214,-0.007 0.0321,-0.009 0.0107,-0.002 0.0214,-0.003 0.0321,-0.004 0.0107,-3.3e-4 0.0214,2.2e-4 0.0321,0.002 0.0107,0.001 0.0214,0.004 0.0321,0.007 0.0107,0.003 0.0214,0.007 0.0321,0.0121 0.0107,0.005 0.0214,0.0107 0.0321,0.0173 0.0107,0.007 0.0214,0.0142 0.0321,0.0226 0.0107,0.008 0.0214,0.0177 0.0321,0.0278 0.0107,0.0101 0.0214,0.0211 0.0321,0.033 0.0107,0.0119 0.0214,0.0246 0.0321,0.0381 0.0107,0.0136 0.0214,0.028 0.0321,0.0433 0.0107,0.0153 0.0214,0.0314 0.0321,0.0484 0.0107,0.017 0.0214,0.0348 0.0321,0.0535 0.0107,0.0187 0.0214,0.0382 0.0321,0.0585 0.0107,0.0203 0.0214,0.0415 0.0321,0.0635 0.0107,0.022 0.0214,0.0448 0.0321,0.0685 0.0107,0.0237 0.0214,0.0481 0.0321,0.0734 0.0107,0.0253 0.0214,0.0514 0.0321,0.0783 0.0107,0.0269 0.0214,0.0546 0.0321,0.0832 0.0107,0.0285 0.0214,0.0578 0.0321,0.0879 0.0107,0.0301 0.0214,0.061 0.0321,0.0927 0.0107,0.0317 0.0214,0.0641 0.0321,0.0973 0.0107,0.0332 0.0214,0.0672 0.0321,0.10194 0.0107,0.0347 0.0214,0.0702 0.0321,0.10648 0.0107,0.0362 0.0214,0.0732 0.0321,0.11095 0.0107,0.0377 0.0214,0.0762 0.0321,0.11536 0.0107,0.0392 0.0214,0.0791 0.0321,0.11969 0.0107,0.0406 0.0214,0.0819 0.0321,0.12394 0.0107,0.042 0.0214,0.0847 0.0321,0.12812 0.0107,0.0434 0.0214,0.0875 0.0321,0.13222 0.0107,0.0447 0.0214,0.0901 0.0321,0.13622 0.0107,0.0461 0.0214,0.0928 0.0321,0.14015 0.0107,0.0474 0.0214,0.0954 0.0321,0.14399 0.0107,0.0486 0.0214,0.0979 0.0321,0.14774 0.0107,0.0499 0.0214,0.10032 0.0321,0.15138 0.0107,0.0511 0.0214,0.10272 0.0321,0.15495 0.0107,0.0522 0.0214,0.10503 0.0321,0.1584 0.0107,0.0534 0.0214,0.10729 0.0321,0.16176 0.0107,0.0545 0.0214,0.10947 0.0321,0.16501 0.0107,0.0555 0.0214,0.1116 0.0321,0.16816 0.0107,0.0566 0.0214,0.11365 0.0321,0.17121 0.0107,0.0576 0.0214,0.11563 0.0321,0.17415 0.0107,0.0585 0.0214,0.11752 0.0321,0.17697 0.0107,0.0594 0.0214,0.11935 0.0321,0.17969 0.0107,0.0603 0.0214,0.1211 0.0321,0.18229 0.0107,0.0612 0.0214,0.12278 0.0321,0.18477 0.0107,0.062 0.0214,0.12438 0.0321,0.18714 0.0107,0.0628 0.0214,0.1259 0.0321,0.18939 0.0107,0.0635 0.0214,0.12734 0.0321,0.19152 0.0107,0.0642 0.0214,0.1287 0.0321,0.19353 0.0107,0.0648 0.0214,0.12997 0.0321,0.19541 0.0107,0.0654 0.0214,0.13117 0.0321,0.19718 0.0107,0.066 0.0214,0.13228 0.0321,0.19881 0.0107,0.0665 0.0214,0.13331 0.0321,0.20033 0.0107,0.067 0.0214,0.13425 0.0321,0.20171 0.0107,0.0675 0.0214,0.13511 0.0321,0.20297 0.0107,0.0679 0.0214,0.13589 0.0321,0.20409 0.0107,0.0682 0.0214,0.13658 0.0321,0.2051 0.0107,0.0685 0.0214,0.13718 0.0321,0.20597 0.0107,0.0688 0.0214,0.13769 0.0321,0.2067 0.0107,0.069 0.0214,0.13813 0.0321,0.20732 0.0107,0.0692 0.0214,0.13846 0.0321,0.20779 0.0107,0.0693 0.0214,0.13872 0.0321,0.20814 0.0107,0.0694 0.0214,0.13888 0.0321,0.20835 0.0107,0.0695 0.0214,0.13896 0.0321,0.20844 0.0107,0.0695 0.0214,0.13895 0.0321,0.20839 0.0107,0.0694 0.0214,0.13884 0.0321,0.2082 0.0107,0.0694 0.0214,0.13866 0.0321,0.20789 0.0107,0.0692 0.0214,0.13839 0.0321,0.20745 0.0107,0.0691 0.0214,0.13802 0.0321,0.20687 0.0107,0.0689 0.0214,0.13758 0.0321,0.20616 0.0107,0.0686 0.0214,0.13704 0.0321,0.20533 0.0107,0.0683 0.0214,0.13642 0.0321,0.20436 0.0107,0.0679 0.0214,0.13571 0.0321,0.20326 0.0107,0.0676 0.0214,0.13491 0.0321,0.20204 0.0107,0.0671 0.0214,0.13403 0.0321,0.20068 0.0107,0.0667 0.0214,0.13307 0.0321,0.19921 0.0107,0.0661 0.0214,0.13201 0.0321,0.1976 0.0107,0.0656 0.0214,0.13088 0.0321,0.19586 0.0107,0.065 0.0214,0.12967 0.0321,0.19401 0.0107,0.0644 0.0214,0.12837 0.0321,0.19204 0.0107,0.0637 0.0214,0.12698 0.0321,0.18993 0.0107,0.063 0.0214,0.12553 0.0321,0.18771 0.0107,0.0622 0.0214,0.12399 0.0321,0.18538 0.0107,0.0614 0.0214,0.12237 0.0321,0.18292 0.0107,0.0606 0.0214,0.12067 0.0321,0.18034 0.0107,0.0597 0.0214,0.11891 0.0321,0.17767 0.0107,0.0588 0.0214,0.11705 0.0321,0.17486 0.0107,0.0578 0.0214,0.11513 0.0321,0.17195 0.0107,0.0568 0.0214,0.11314 0.0321,0.16894 0.0107,0.0558 0.0214,0.11107 0.0321,0.16581 0.0107,0.0547 0.0214,0.10894 0.0321,0.16258 0.0107,0.0537 0.0214,0.10674 0.0321,0.15925 0.0107,0.0525 0.0214,0.10446 0.0321,0.15582 0.0107,0.0514 0.0214,0.10212 0.0321,0.15228 0.0107,0.0502 0.0214,0.0997 0.0321,0.14866 0.0107,0.0489 0.0214,0.0973 0.0321,0.14493 0.0107,0.0477 0.0214,0.0947 0.0321,0.14112 0.0107,0.0464 0.0214,0.0921 0.0321,0.13722 0.0107,0.0451 0.0214,0.0895 0.0321,0.13323 0.0107,0.0437 0.0214,0.0868 0.0321,0.12915 0.0107,0.0424 0.0214,0.084 0.0321,0.12499 0.0107,0.041 0.0214,0.0812 0.0321,0.12076 0.0107,0.0395 0.0214,0.0784 0.0321,0.11645 0.0107,0.0381 0.0214,0.0755 0.0321,0.11206 0.0107,0.0366 0.0214,0.0725 0.0321,0.10761 0.0107,0.0351 0.0214,0.0695 0.0321,0.10308 0.0107,0.0336 0.0214,0.0664 0.0321,0.0985 0.0107,0.0321 0.0214,0.0633 0.0321,0.0938 0.0107,0.0305 0.0214,0.0602 0.0321,0.0891 0.0107,0.0289 0.0214,0.0571 0.0321,0.0844 0.0107,0.0273 0.0214,0.0538 0.0321,0.0795 0.0107,0.0257 0.0214,0.0506 0.0321,0.0747 0.0107,0.0241 0.0214,0.0473 0.0321,0.0697 0.0107,0.0224 0.0214,0.044 0.0321,0.0648 0.0107,0.0208 0.0214,0.0407 0.0321,0.0598 0.0107,0.0191 0.0214,0.0373 0.0321,0.0547 0.0107,0.0174 0.0214,0.034 0.0321,0.0497 0.0107,0.0157 0.0214,0.0306 0.0321,0.0446 0.0107,0.014 0.0214,0.0271 0.0321,0.0394 0.0107,0.0123 0.0214,0.0237 0.0321,0.0343 0.0107,0.0106 0.0214,0.0203 0.0321,0.0291 0.0107,0.009 0.0214,0.0168 0.0321,0.0239 0.0107,0.007 0.0214,0.0133 0.0321,0.0186 0.0107,0.005 0.0214,0.01 0.0321,0.0134 0.0107,0.004 0.0214,0.006 0.0321,0.008 0.0107,0.002 0.0214,0.003 0.0321,0.003 0.0107,1.1e-4 0.0214,-6.6e-4 0.0321,-0.002 0.0107,-0.002 0.0214,-0.004 0.0321,-0.008 0.0107,-0.003 0.0214,-0.008 0.0321,-0.0128 0.0107,-0.005 0.0214,-0.0111 0.0321,-0.018 0.0107,-0.007 0.0214,-0.0146 0.0321,-0.0232 0.0107,-0.009 0.0214,-0.0181 0.0321,-0.0284 0.0107,-0.0103 0.0214,-0.0215 0.0321,-0.0336 0.0107,-0.0121 0.0214,-0.025 0.0321,-0.0388 0.0107,-0.0138 0.0214,-0.0284 0.0321,-0.0439 0.0107,-0.0155 0.0214,-0.0318 0.0321,-0.049 0.0107,-0.0172 0.0214,-0.0352 0.0321,-0.0541 0.0107,-0.0189 0.0214,-0.0386 0.0321,-0.0592 0.0107,-0.0206 0.0214,-0.0419 0.0321,-0.0642 0.0107,-0.0222 0.0214,-0.0453 0.0321,-0.0691 0.0107,-0.0239 0.0214,-0.0486 0.0321,-0.0741 0.0107,-0.0255 0.0214,-0.0518 0.0321,-0.0789 0.0107,-0.0271 0.0214,-0.055 0.0321,-0.0838 0.0107,-0.0287 0.0214,-0.0582 0.0321,-0.0885 0.0107,-0.0303 0.0214,-0.0614 0.0321,-0.0933 0.0107,-0.0319 0.0214,-0.0645 0.0321,-0.0979 0.0107,-0.0334 0.0214,-0.0676 0.0321,-0.10251 0.0107,-0.0349 0.0214,-0.0706 0.0321,-0.10704 0.0107,-0.0364 0.0214,-0.0736 0.0321,-0.11151 0.0107,-0.0379 0.0214,-0.0765 0.0321,-0.11591 0.0107,-0.0394 0.0214,-0.0794 0.0321,-0.12022 0.0107,-0.0408 0.0214,-0.0823 0.0321,-0.12447 0.0107,-0.0422 0.0214,-0.0851 0.0321,-0.12864 0.0107,-0.0436 0.0214,-0.0878 0.0321,-0.13272 0.0107,-0.0449 0.0214,-0.0905 0.0321,-0.13672 0.0107,-0.0462 0.0214,-0.0931 0.0321,-0.14064 0.0107,-0.0475 0.0214,-0.0957 0.0321,-0.14446 0.0107,-0.0488 0.0214,-0.0982 0.0321,-0.14819 0.0107,-0.05 0.0214,-0.10063 0.0321,-0.15184 0.0107,-0.0512 0.0214,-0.10301 0.03211,-0.15538 0.0107,-0.0524 0.0214,-0.10532 0.0321,-0.15883 0.0107,-0.0535 0.0214,-0.10756 0.0321,-0.16217 0.0107,-0.0546 0.0214,-0.10974 0.0321,-0.16541 0.0107,-0.0557 0.0214,-0.11186 0.0321,-0.16855 0.0107,-0.0567 0.0214,-0.1139 0.0321,-0.17158 0.0107,-0.0577 0.0214,-0.11587 0.0321,-0.17451 0.0107,-0.0586 0.0214,-0.11776 0.0321,-0.17732 0.0107,-0.0596 0.0214,-0.11957 0.0321,-0.18002 0.0107,-0.0604 0.0214,-0.12131 0.0321,-0.1826 0.0107,-0.0613 0.0214,-0.12298 0.0321,-0.18507 0.0107,-0.0621 0.0214,-0.12458 0.0321,-0.18743 0.0107,-0.0629 0.0214,-0.12608 0.0321,-0.18966 0.0107,-0.0636 0.0214,-0.12752 0.0321,-0.19178 0.0107,-0.0643 0.0214,-0.12886 0.0321,-0.19377 0.0107,-0.0649 0.0214,-0.13013 0.0321,-0.19564 0.0107,-0.0655 0.0214,-0.13132 0.0321,-0.19739 0.0107,-0.0661 0.0214,-0.13242 0.0321,-0.19901 0.0107,-0.0666 0.0214,-0.13344 0.0321,-0.20051 0.0107,-0.0671 0.0214,-0.13437 0.0321,-0.20187 0.0107,-0.0675 0.0214,-0.13522 0.0321,-0.20312 0.0107,-0.0679 0.0214,-0.13598 0.0321,-0.20423 0.0107,-0.0683 0.0214,-0.13666 0.0321,-0.20521 0.0107,-0.0686 0.0214,-0.13725 0.0321,-0.20607 0.0107,-0.0688 0.0214,-0.13775 0.0321,-0.20679 0.0107,-0.069 0.0214,-0.13817 0.0321,-0.20738 0.0107,-0.0692 0.0214,-0.1385 0.0321,-0.20784 0.0107,-0.0694 0.0214,-0.13874 0.0321,-0.20818 0.0107,-0.0694 0.0214,-0.13889 0.0321,-0.20837 0.0107,-0.0695 0.0214,-0.13896 0.0321,-0.20843 0.0107,-0.0695 0.0214,-0.13894 0.0321,-0.20837 0.0107,-0.0694 0.0214,-0.13883 0.0321,-0.20818 0.0107,-0.0693 0.0214,-0.13863 0.03211,-0.20784 0.0107,-0.0692 0.0214,-0.13835 0.0321,-0.20738 0.0107,-0.069 0.0214,-0.13798 0.03211,-0.20679 0.0107,-0.0688 0.0214,-0.13751 0.0321,-0.20607 0.0107,-0.0686 0.0214,-0.13696 0.03211,-0.20521 0.0107,-0.0682 0.0214,-0.13633 0.0321,-0.20423 0.0107,-0.0679 0.0214,-0.13561 0.03211,-0.20312 0.0107,-0.0675 0.0214,-0.1348 0.0321,-0.20187 0.0107,-0.0671 0.0214,-0.13392 0.0321,-0.20051 0.0107,-0.0666 0.0214,-0.13294 0.0321,-0.19901 0.0107,-0.0661 0.0214,-0.13187 0.0321,-0.19739 0.0107,-0.0655 0.0214,-0.13073 0.0321,-0.19564 0.0107,-0.0649 0.0214,-0.1295 0.0321,-0.19377 0.0107,-0.0643 0.0214,-0.1282 0.0321,-0.19178 0.0107,-0.0636 0.0214,-0.1268 0.0321,-0.18966 0.0107,-0.0628 0.0214,-0.12534 0.0321,-0.18743 0.0107,-0.0621 0.0214,-0.12378 0.0321,-0.18507 0.0107,-0.0613 0.0214,-0.12216 0.0321,-0.1826 0.0107,-0.0605 0.0214,-0.12046 0.0321,-0.18002 0.0107,-0.0596 0.0214,-0.11868 0.0321,-0.17732 0.0107,-0.0586 0.0214,-0.11682 0.0321,-0.17451 0.0107,-0.0577 0.0214,-0.11488 0.0321,-0.17158 0.0107,-0.0567 0.0214,-0.11288 0.0321,-0.16855 0.0107,-0.0557 0.0214,-0.11081 0.0321,-0.16541 0.0107,-0.0546 0.0214,-0.10867 0.0321,-0.16217 0.0107,-0.0535 0.0214,-0.10646 0.0321,-0.15883 0.0107,-0.0524 0.0214,-0.10417 0.0321,-0.15538 0.0107,-0.0512 0.0214,-0.10183 0.0321,-0.15184 0.0107,-0.05 0.0214,-0.0994 0.0321,-0.14819 0.0107,-0.0488 0.0214,-0.0969 0.0321,-0.14446 0.0107,-0.0475 0.0214,-0.0944 0.0321,-0.14064 0.0107,-0.0462 0.0214,-0.0918 0.0321,-0.13672 0.0107,-0.0449 0.0214,-0.0892 0.0321,-0.13272 0.0107,-0.0436 0.0214,-0.0864 0.0321,-0.12864 0.0107,-0.0422 0.0214,-0.0837 0.03211,-0.12447 0.0107,-0.0408 0.0214,-0.0809 0.0321,-0.12022 0.0107,-0.0394 0.0214,-0.078 0.03211,-0.11591 0.0107,-0.0379 0.0214,-0.0751 0.0321,-0.11151 0.0107,-0.0364 0.0214,-0.0721 0.0321,-0.10704 0.0107,-0.0349 0.0214,-0.0691 0.0321,-0.10251 0.0107,-0.0334 0.0214,-0.0661 0.0321,-0.0979 0.0107,-0.0319 0.0214,-0.063 0.03211,-0.0933 0.0107,-0.0303 0.0214,-0.0598 0.0321,-0.0885 0.0107,-0.0287 0.0214,-0.0566 0.0321,-0.0838 0.0107,-0.0271 0.0214,-0.0534 0.0321,-0.0789 0.0107,-0.0255 0.0214,-0.0502 0.03211,-0.0741 0.0107,-0.0239 0.0214,-0.0469 0.0321,-0.0691 0.0107,-0.0222 0.0214,-0.0436 0.0321,-0.0642 0.0107,-0.0205 0.0214,-0.0403 0.0321,-0.0591 0.0107,-0.0189 0.0214,-0.0369 0.0321,-0.0541 0.0107,-0.0172 0.0214,-0.0335 0.03211,-0.049 0.0107,-0.0155 0.0214,-0.0301 0.0321,-0.0439 0.0107,-0.0138 0.0214,-0.0267 0.0321,-0.0388 0.0107,-0.0121 0.0214,-0.0233 0.0321,-0.0336 0.0107,-0.0103 0.0214,-0.0198 0.03211,-0.0284 0.0107,-0.009 0.0214,-0.0164 0.0321,-0.0232 0.0107,-0.007 0.0214,-0.0129 0.0321,-0.018 0.0107,-0.005 0.0214,-0.009 0.0321,-0.0128 0.0107,-0.003 0.0214,-0.006 0.0321,-0.008 0.0107,-0.002 0.0214,-0.002 0.03211,-0.002 0.0107,1.1e-4 0.0214,10e-4 0.0321,0.003 0.0107,0.002 0.0214,0.005 0.0321,0.008 0.0107,0.004 0.0214,0.008 0.0321,0.0134 0.0107,0.005 0.0214,0.0116 0.0321,0.0187 0.0107,0.007 0.0214,0.0151 0.0321,0.0239 0.0107,0.009 0.0214,0.0185 0.0321,0.0291 0.0107,0.0106 0.0214,0.022 0.0321,0.0343 0.0107,0.0123 0.0214,0.0254 0.0321,0.0394 0.0107,0.014 0.0214,0.0288 0.0321,0.0445 0.0107,0.0157 0.0214,0.0323 0.0321,0.0497 0.0107,0.0174 0.0214,0.0357 0.0321,0.0547 0.0107,0.0191 0.0214,0.039 0.0321,0.0598 0.0107,0.0208 0.0214,0.0424 0.0321,0.0648 0.0107,0.0224 0.0214,0.0457 0.0321,0.0697 0.0107,0.0241 0.0214,0.049 0.0321,0.0747 0.0107,0.0257 0.0214,0.0522 0.0321,0.0795 0.0107,0.0273 0.0214,0.0554 0.0321,0.0844 0.0107,0.0289 0.0214,0.0586 0.0321,0.0891 0.0107,0.0305 0.0214,0.0618 0.0321,0.0938 0.0107,0.0321 0.0214,0.0649 0.0321,0.0985 0.0107,0.0336 0.0214,0.068 0.0321,0.10308 0.0107,0.0351 0.0214,0.071 0.0321,0.10761 0.0107,0.0366 0.0214,0.074 0.0321,0.11206 0.0107,0.0381 0.0214,0.0769 0.0321,0.11645 0.0107,0.0395 0.0214,0.0798 0.0321,0.12076 0.0107,0.041 0.0214,0.0826 0.0321,0.12499 0.0107,0.0424 0.0214,0.0854 0.0321,0.12915 0.0107,0.0437 0.0214,0.0881 0.0321,0.13323 0.0107,0.0451 0.0214,0.0908 0.0321,0.13722 0.0107,0.0464 0.0214,0.0934 0.0321,0.14112 0.0107,0.0477 0.0214,0.096 0.0321,0.14493 0.0107,0.0489 0.0214,0.0985 0.0321,0.14866 0.0107,0.0502 0.0214,0.10092 0.0321,0.15228 0.0107,0.0514 0.0214,0.1033 0.0321,0.15582 0.0107,0.0525 0.0214,0.1056 0.0321,0.15925 0.0107,0.0536 0.0214,0.10784 0.0321,0.16258 0.0107,0.0547 0.0214,0.11001 0.0321,0.16581 0.0107,0.0558 0.0214,0.11212 0.0321,0.16894 0.0107,0.0568 0.0214,0.11414 0.0321,0.17195 0.0107,0.0578 0.0214,0.1161 0.0321,0.17486 0.0107,0.0588 0.0214,0.11799 0.0321,0.17767 0.0107,0.0597 0.0214,0.11979 0.0321,0.18034 0.0107,0.0606 0.0214,0.12153 0.0321,0.18292 0.0107,0.0614 0.0214,0.12319 0.0321,0.18538 0.0107,0.0622 0.0214,0.12476 0.0321,0.18771 0.0107,0.063 0.0214,0.12627 0.0321,0.18993 0.0107,0.0637 0.0214,0.12769 0.0321,0.19204 0.0107,0.0643 0.0214,0.12902 0.0321,0.19401 0.0107,0.065 0.0214,0.13028 0.0321,0.19586 0.0107,0.0656 0.0214,0.13146 0.0321,0.1976 0.0107,0.0661 0.0214,0.13255 0.0321,0.19921 0.0107,0.0667 0.0214,0.13355 0.0321,0.20068 0.0107,0.0671 0.0214,0.13448 0.0321,0.20204 0.0107,0.0675 0.0214,0.13532 0.0321,0.20326 0.0107,0.0679 0.0214,0.13607 0.0321,0.20436 0.0107,0.0683 0.0214,0.13674 0.0321,0.20533 0.0107,0.0686 0.0214,0.13731 0.0321,0.20616 0.0107,0.0688 0.0214,0.13781 0.0321,0.20687 0.0107,0.0691 0.0214,0.13822 0.0321,0.20745 0.0107,0.0692 0.0214,0.13853 0.0321,0.20789 0.0107,0.0694 0.0214,0.13877 0.0321,0.2082 0.0107,0.0694 0.0214,0.13891 0.0321,0.20839 0.0107,0.0695 0.0214,0.13896 0.0321,0.20844 0.0107,0.0695 0.0214,0.13893 0.0321,0.20835 0.0107,0.0694 0.0214,0.13881 0.0321,0.20814 0.0107,0.0693 0.0214,0.1386 0.0321,0.20779 0.0107,0.0692 0.0214,0.13831 0.0321,0.20732 0.0107,0.069 0.0214,0.13792 0.0321,0.2067 0.0107,0.0688 0.0214,0.13745 0.0321,0.20597 0.0107,0.0685 0.0214,0.13689 0.0321,0.2051 0.0107,0.0682 0.0214,0.13624 0.0321,0.20409 0.0107,0.0679 0.0214,0.13552 0.0321,0.20297 0.0107,0.0675 0.0214,0.1347 0.0321,0.20171 0.0107,0.067 0.0214,0.1338 0.0321,0.20033 0.0107,0.0665 0.0214,0.13281 0.0321,0.19881 0.0107,0.066 0.0214,0.13174 0.0321,0.19718 0.0107,0.0654 0.0214,0.13058 0.0321,0.19541 0.0107,0.0648 0.0214,0.12935 0.0321,0.19353 0.0107,0.0642 0.0214,0.12803 0.0321,0.19152 0.0107,0.0635 0.0214,0.12663 0.0321,0.18939 0.0107,0.0628 0.0214,0.12515 0.0321,0.18714 0.0107,0.062 0.0214,0.12359 0.0321,0.18477 0.0107,0.0612 0.0214,0.12195 0.0321,0.18229 0.0107,0.0603 0.0214,0.12024 0.0321,0.17969 0.0107,0.0594 0.0214,0.11844 0.0321,0.17697 0.0107,0.0585 0.0214,0.11658 0.0321,0.17415 0.0107,0.0576 0.0214,0.11464 0.0321,0.17121 0.0107,0.0566 0.0214,0.11262 0.0321,0.16816 0.0107,0.0555 0.0214,0.11055 0.0321,0.16501 0.0107,0.0545 0.0214,0.1084 0.0321,0.16176 0.0107,0.0534 0.0214,0.10617 0.0321,0.1584 0.0107,0.0522 0.0214,0.10389 0.0321,0.15495 0.0107,0.0511 0.0214,0.10152 0.0321,0.15138 0.0107,0.0499 0.0214,0.0991 0.0321,0.14774 0.0107,0.0486 0.0214,0.0966 0.0321,0.14399 0.0107,0.0474 0.0214,0.0941 0.0321,0.14015 0.0107,0.0461 0.0214,0.0915 0.0321,0.13622 0.0107,0.0447 0.0214,0.0888 0.0321,0.13222 0.0107,0.0434 0.0214,0.0861 0.0321,0.12812 0.0107,0.042 0.0214,0.0833 0.0321,0.12394 0.0107,0.0406 0.0214,0.0805 0.0321,0.11969 0.0107,0.0392 0.0214,0.0776 0.0321,0.11536 0.0107,0.0377 0.0214,0.0747 0.0321,0.11095 0.0107,0.0362 0.0214,0.0717 0.0321,0.10648 0.0107,0.0347 0.0214,0.0687 0.0321,0.10194 0.0107,0.0332 0.0214,0.0657 0.0321,0.0973 0.0107,0.0317 0.0214,0.0626 0.03211,0.0927 0.0107,0.0301 0.0214,0.0594 0.0321,0.0879 0.0107,0.0285 0.0214,0.0563 0.0321,0.0832 0.0107,0.0269 0.0214,0.053 0.0321,0.0783 0.0107,0.0253 0.0214,0.0498 0.0321,0.0734 0.0107,0.0237 0.0214,0.0465 0.0321,0.0685 0.0107,0.022 0.0214,0.0432 0.0321,0.0635 0.0107,0.0203 0.0214,0.0399 0.0321,0.0585 0.0107,0.0187 0.0214,0.0365 0.0321,0.0535 0.0107,0.017 0.0214,0.0331 0.0321,0.0484 0.0107,0.0153 0.0214,0.0297 0.0321,0.0433 0.0107,0.0136 0.0214,0.0263 0.0321,0.0381 0.0107,0.0118 0.0214,0.0228 0.0321,0.033 0.0107,0.0101 0.0214,0.0194 0.0321,0.0278 0.0107,0.008 0.0214,0.0159 0.0321,0.0226 0.0107,0.007 0.0214,0.0124 0.0321,0.0173 0.0107,0.005 0.0214,0.009 0.0321,0.0121 0.0107,0.003 0.0214,0.005 0.0321,0.007 0.0107,0.001 0.0214,0.002 0.0321,0.002 0.0107,-3.3e-4 0.0214,-0.002 0.0321,-0.004 0.0107,-0.002 0.0214,-0.005 0.0321,-0.009 0.0107,-0.004 0.0214,-0.009 0.0321,-0.0141 0.0107,-0.006 0.0214,-0.012 0.0321,-0.0193 0.0107,-0.007 0.0214,-0.0155 0.0321,-0.0245 0.0107,-0.009 0.0214,-0.019 0.0321,-0.0297 0.0107,-0.0108 0.0214,-0.0224 0.0321,-0.0349 0.0107,-0.0125 0.0214,-0.0258 0.0321,-0.0401 0.0107,-0.0142 0.0214,-0.0293 0.0321,-0.0452 0.0107,-0.0159 0.0214,-0.0327 0.0321,-0.0503 0.0107,-0.0176 0.0214,-0.0361 0.0321,-0.0554 0.0107,-0.0193 0.0214,-0.0394 0.0321,-0.0604 0.0107,-0.021 0.0214,-0.0428 0.0321,-0.0654 0.0107,-0.0226 0.0214,-0.0461 0.0321,-0.0704 0.0107,-0.0243 0.0214,-0.0494 0.0321,-0.0753 0.0107,-0.0259 0.0214,-0.0526 0.0321,-0.0802 0.0107,-0.0275 0.0214,-0.0558 0.0321,-0.085 0.0107,-0.0291 0.0214,-0.059 0.0321,-0.0897 0.0107,-0.0307 0.0214,-0.0622 0.0321,-0.0944 0.0107,-0.0323 0.0214,-0.0653 0.0321,-0.0991 0.0107,-0.0338 0.0214,-0.0683 0.0321,-0.10365 0.0107,-0.0353 0.0214,-0.0714 0.0321,-0.10816 0.0107,-0.0368 0.0214,-0.0744 0.0321,-0.11262 0.0107,-0.0383 0.0214,-0.0773 0.0321,-0.11699 0.0107,-0.0397 0.0214,-0.0802 0.0321,-0.12129 0.0107,-0.0411 0.0214,-0.083 0.0321,-0.12552 0.0107,-0.0425 0.0214,-0.0858 0.0321,-0.12967 0.0107,-0.0439 0.0214,-0.0885 0.0321,-0.13373 0.0107,-0.0452 0.0214,-0.0911 0.0321,-0.1377 0.0107,-0.0466 0.0214,-0.0938 0.0321,-0.14161 0.0107,-0.0478 0.0214,-0.0963 0.0321,-0.1454 0.0107,-0.0491 0.0214,-0.0988 0.0321,-0.14911 0.0107,-0.0503 0.0214,-0.10123 0.0321,-0.15274 0.0107,-0.0515 0.0214,-0.10359 0.0321,-0.15625 0.0107,-0.0527 0.0214,-0.10589 0.0321,-0.15967 0.0107,-0.0538 0.0214,-0.10812 0.0321,-0.16299 0.0107,-0.0549 0.0214,-0.11028 0.0321,-0.16621 0.0107,-0.0559 0.0214,-0.11237 0.0321,-0.16932 0.0107,-0.0569 0.0214,-0.11439 0.0321,-0.17232 0.0107,-0.0579 0.0214,-0.11634 0.0321,-0.17522 0.0107,-0.0589 0.0214,-0.11822 0.0321,-0.178 0.0107,-0.0598 0.0214,-0.12002 0.0321,-0.18068 0.0107,-0.0607 0.0214,-0.12174 0.0321,-0.18323 0.0107,-0.0615 0.0214,-0.12339 0.0321,-0.18568 0.0107,-0.0623 0.0214,-0.12495 0.0321,-0.18799 0.0107,-0.063 0.0214,-0.12645 0.0321,-0.19021 0.0107,-0.0637 0.0214,-0.12785 0.0321,-0.19228 0.0107,-0.0644 0.0214,-0.12919 0.0321,-0.19425 0.0107,-0.0651 0.0214,-0.13044 0.0321,-0.19609 0.0107,-0.0657 0.0214,-0.1316 0.0321,-0.19781 0.0107,-0.0662 0.0214,-0.13268 0.0321,-0.19939 0.0107,-0.0667 0.0214,-0.13368 0.0321,-0.20086 0.0107,-0.0672 0.0214,-0.13459 0.0321,-0.2022 0.0107,-0.0676 0.0214,-0.13542 0.0321,-0.20341 0.0107,-0.068 0.0214,-0.13616 0.0321,-0.20448 0.0107,-0.0683 0.0214,-0.13682 0.0321,-0.20544 0.0107,-0.0686 0.0214,-0.13739 0.0321,-0.20626 0.0107,-0.0689 0.0214,-0.13787 0.0321,-0.20695 0.0107,-0.0691 0.0214,-0.13826 0.0321,-0.20751 0.0107,-0.0692 0.0214,-0.13857 0.0321,-0.20794 0.0107,-0.0694 0.0214,-0.13879 0.0321,-0.20824 0.0107,-0.0694 0.0214,-0.13892 0.0321,-0.20839 0.0107,-0.0695 0.0214,-0.13897 0.0321,-0.20844 0.0107,-0.0695 0.0214,-0.13892 0.0321,-0.20833 0.0107,-0.0694 0.0214,-0.13879 0.0321,-0.2081 0.0107,-0.0693 0.0214,-0.13857 0.0321,-0.20774 0.0107,-0.0692 0.0214,-0.13827 0.0321,-0.20725 0.0107,-0.069 0.0214,-0.13787 0.0321,-0.20662 0.0107,-0.0688 0.0214,-0.13739 0.0321,-0.20587 0.0107,-0.0685 0.0214,-0.13681 0.0321,-0.20498 0.0107,-0.0682 0.0214,-0.13616 0.0321,-0.20396 0.0107,-0.0678 0.0214,-0.13542 0.0321,-0.20282 0.0107,-0.0674 0.0214,-0.13459 0.0321,-0.20154 0.0107,-0.067 0.0214,-0.13368 0.0321,-0.20015 0.0107,-0.0665 0.0214,-0.13268 0.0321,-0.19861 0.0107,-0.0659 0.0214,-0.1316 0.0321,-0.19697 0.0107,-0.0654 0.0214,-0.13043 0.0321,-0.19518 0.0107,-0.0648 0.0214,-0.12919 0.0321,-0.19328 0.0107,-0.0641 0.0214,-0.12786 0.0321,-0.19126 0.0107,-0.0634 0.0214,-0.12645 0.0321,-0.18912 0.0107,-0.0627 0.0214,-0.12496 0.0321,-0.18685 0.0107,-0.0619 0.0214,-0.12339 0.0321,-0.18447 0.0107,-0.0611 0.0214,-0.12174 0.0321,-0.18197 0.0107,-0.0602 0.0214,-0.12001 0.0321,-0.17935 0.0107,-0.0593 0.0214,-0.11822 0.0321,-0.17662 0.0107,-0.0584 0.0214,-0.11635 0.0321,-0.17379 0.0107,-0.0574 0.0214,-0.11439 0.0321,-0.17083 0.0107,-0.0564 0.0214,-0.11238 0.0321,-0.16778 0.0107,-0.0554 0.0214,-0.11028 0.0321,-0.16461 0.0107,-0.0543 0.0214,-0.10812 0.0321,-0.16135 0.0107,-0.0532 0.0214,-0.10589 0.0321,-0.15797 0.0107,-0.0521 0.0214,-0.10359 0.0321,-0.15451 0.0107,-0.0509 0.0214,-0.10122 0.0321,-0.15093 0.0107,-0.0497 0.0214,-0.0988 0.0321,-0.14727 0.0107,-0.0485 0.0214,-0.0963 0.0321,-0.14352 0.0107,-0.0472 0.0214,-0.0938 0.0321,-0.13966 0.0107,-0.0459 0.0214,-0.0911 0.0321,-0.13573 0.0107,-0.0446 0.0214,-0.0885 0.03211,-0.13171 0.0107,-0.0432 0.0214,-0.0858 0.0321,-0.1276 0.0107,-0.0418 0.0214,-0.083 0.0321,-0.12342 0.0107,-0.0404 0.0214,-0.0802 0.0321,-0.11915 0.0107,-0.039 0.0214,-0.0773 0.0321,-0.11481 0.0107,-0.0375 0.0214,-0.0743 0.0321,-0.1104 0.0107,-0.0361 0.0214,-0.0714 0.0321,-0.10592 0.0107,-0.0345 0.0214,-0.0683 0.0321,-0.10136 0.0107,-0.033 0.0214,-0.0653 0.0321,-0.0968 0.0107,-0.0315 0.0214,-0.0622 0.0321,-0.0921 0.0107,-0.0299 0.0214,-0.059 0.0321,-0.0873 0.0107,-0.0283 0.0214,-0.0558 0.0321,-0.0826 0.0107,-0.0267 0.0214,-0.0526 0.0321,-0.0777 0.0107,-0.0251 0.0214,-0.0494 0.0321,-0.0728 0.0107,-0.0235 0.0214,-0.0461 0.0321,-0.0679 0.0107,-0.0218 0.0214,-0.0428 0.0321,-0.0629 0.0107,-0.0201 0.0214,-0.0394 0.0321,-0.0579 0.0107,-0.0185 0.0214,-0.0361 0.0321,-0.0528 0.0107,-0.0168 0.0214,-0.0327 0.03211,-0.0478 0.0107,-0.0151 0.0214,-0.0293 0.0321,-0.0426 0.0107,-0.0133 0.0214,-0.0258 0.0321,-0.0375 0.0107,-0.0116 0.0214,-0.0224 0.0321,-0.0323 0.0107,-0.01 0.0214,-0.0189 0.03211,-0.0271 0.0107,-0.008 0.0214,-0.0155 0.0321,-0.0219 0.0107,-0.006 0.0214,-0.012 0.03211,-0.0167 0.0107,-0.005 0.0214,-0.009 0.0321,-0.0115 0.0107,-0.003 0.0214,-0.005 0.0321,-0.006 0.0107,-0.001 0.0214,-0.002 0.0321,-9.8e-4 0.0107,5.4e-4 0.0214,0.002 0.03211,0.004 0.0107,0.002 0.0214,0.005 0.0321,0.01 0.0107,0.004 0.0214,0.009 0.0321,0.0147 0.0107,0.006 0.0214,0.0124 0.0321,0.02 0.0107,0.008 0.0214,0.0159 0.0321,0.0252 0.0107,0.009 0.0214,0.0194 0.03211,0.0304 0.0107,0.011 0.0214,0.0228 0.0321,0.0356 0.0107,0.0127 0.0214,0.0263 0.0321,0.0407 0.0107,0.0144 0.0214,0.0297 0.0321,0.0458 0.0107,0.0161 0.0214,0.0331 0.0321,0.0509 0.0107,0.0178 0.0214,0.0365 0.0321,0.056 0.0107,0.0195 0.0214,0.0399 0.03211,0.061 0.0107,0.0212 0.0214,0.0432 0.0321,0.066 0.0107,0.0228 0.0214,0.0465 0.0321,0.071 0.0107,0.0245 0.0214,0.0498 0.0321,0.0759 0.0107,0.0261 0.0214,0.053 0.03211,0.0807 0.0107,0.0277 0.0214,0.0562 0.0321,0.0856 0.0107,0.0293 0.0214,0.0594 0.0321,0.0903 0.0107,0.0309 0.0214,0.0626 0.0321,0.095 0.0107,0.0325 0.0214,0.0657 0.0321,0.0996 0.0107,0.034 0.0214,0.0687 0.0321,0.10421 0.0107,0.0355 0.0214,0.0717 0.0321,0.10873 0.0107,0.037 0.0214,0.0747 0.0321,0.11316 0.0107,0.0385 0.0214,0.0776 0.0321,0.11754 0.0107,0.0399 0.0214,0.0805 0.0321,0.12182 0.0107,0.0413 0.0214,0.0833 0.0321,0.12604 0.0107,0.0427 0.0214,0.0861 0.03211,0.13018 0.0107,0.0441 0.0214,0.0888 0.0321,0.13423 0.0107,0.0454 0.0214,0.0915 0.0321,0.1382 0.0107,0.0467 0.0214,0.0941 0.0321,0.14209 0.0107,0.048 0.0214,0.0966 0.0321,0.14587 0.0107,0.0492 0.0214,0.0991 0.0321,0.14957 0.0107,0.0505 0.0214,0.10153 0.0321,0.15318 0.0107,0.0516 0.0214,0.10388 0.0321,0.15668 0.0107,0.0528 0.0214,0.10617 0.0321,0.16009 0.0107,0.0539 0.0214,0.1084 0.0321,0.1634 0.0107,0.055 0.0214,0.11055 0.0321,0.16661 0.0107,0.056 0.0214,0.11262 0.0321,0.1697 0.0107,0.0571 0.0214,0.11464 0.0321,0.17269 0.0107,0.0581 0.0214,0.11658 0.0321,0.17557 0.0107,0.059 0.0214,0.11845 0.0321,0.17834 0.0107,0.0599 0.0214,0.12024 0.0321,0.18101 0.0107,0.0608 0.0214,0.12195 0.0321,0.18354 0.0107,0.0616 0.0214,0.12359 0.0321,0.18597 0.0107,0.0624 0.0214,0.12515 0.0321,0.18828 0.0107,0.0631 0.0214,0.12663 0.0321,0.19047 0.0107,0.0638 0.0214,0.12803 0.0321,0.19254 0.0107,0.0645 0.0214,0.12935 0.0321,0.19449 0.0107,0.0651 0.0214,0.13058 0.0321,0.19631 0.0107,0.0657 0.0214,0.13173 0.0321,0.19801 0.0107,0.0663 0.0214,0.13281 0.03211,0.19958 0.0107,0.0668 0.0214,0.1338 0.0321,0.20104 0.0107,0.0672 0.0214,0.13469 0.03211,0.20235 0.0107,0.0677 0.0214,0.13552 0.0321,0.20355 0.0107,0.068 0.0214,0.13625 0.03211,0.20462 0.0107,0.0684 0.0214,0.13689 0.0321,0.20554 0.0107,0.0687 0.0214,0.13745 0.0321,0.20636 0.0107,0.0689 0.0214,0.13792 0.0321,0.20702 0.0107,0.0691 0.0214,0.13831 0.0321,0.20757 0.0107,0.0693 0.0214,0.1386 0.03211,0.20799 0.0107,0.0694 0.0214,0.13881 0.0321,0.20826 0.0107,0.0695 0.0214,0.13893 0.03211,0.20841 0.0107,0.0695 0.0214,0.13896 0.0321,0.20843 0.0107,0.0695 0.0214,0.13891 0.03211,0.20831 0.0107,0.0694 0.0214,0.13876 0.0321,0.20806 0.0107,0.0693 0.0214,0.13854 0.03211,0.20769 0.0107,0.0692 0.0214,0.13822 0.0321,0.20717 0.0107,0.069 0.0214,0.13782 0.0321,0.20654 0.0107,0.0687 0.0214,0.13732 0.0321,0.20576 0.0107,0.0684 0.0214,0.13674 0.0321,0.20486 0.0107,0.0681 0.0214,0.13607 0.0321,0.20383 0.0107,0.0677 0.0214,0.13532 0.0321,0.20266 0.0107,0.0673 0.0214,0.13448 0.0321,0.20138 0.0107,0.0669 0.0214,0.13356 0.0321,0.19996 0.0107,0.0664 0.0214,0.13255 0.03211,0.19842 0.0107,0.0659 0.0214,0.13145 0.0321,0.19674 0.0107,0.0653 0.0214,0.13029 0.0321,0.19496 0.0107,0.0647 0.0214,0.12902 0.0321,0.19303 0.0107,0.064 0.0214,0.12769 0.0321,0.191 0.0107,0.0633 0.0214,0.12627 0.0321,0.18884 0.0107,0.0626 0.0214,0.12477 0.0321,0.18656 0.0107,0.0618 0.0214,0.12319 0.0321,0.18416 0.0107,0.061 0.0214,0.12153 0.0321,0.18165 0.0107,0.0601 0.0214,0.1198 0.0321,0.17902 0.0107,0.0592 0.0214,0.11799 0.0321,0.17627 0.0107,0.0583 0.0214,0.11611 0.0321,0.17343 0.0107,0.0573 0.0214,0.11414 0.0321,0.17046 0.0107,0.0563 0.0214,0.11211 0.0321,0.16738 0.0107,0.0553 0.0214,0.11002 0.0321,0.16421 0.0107,0.0542 0.0214,0.10785 0.0321,0.16093 0.0107,0.0531 0.0214,0.10561 0.0321,0.15755 0.0107,0.0519 0.0214,0.1033 0.0321,0.15406 0.0107,0.0508 0.0214,0.10093 0.0321,0.15048 0.0107,0.0496 0.0214,0.0985 0.0321,0.14681 0.0107,0.0483 0.0214,0.096 0.0321,0.14304 0.0107,0.047 0.0214,0.0934 0.0321,0.13918 0.0107,0.0457 0.0214,0.0908 0.0321,0.13523 0.0107,0.0444 0.0214,0.0881 0.0321,0.1312 0.0107,0.043 0.0214,0.0854 0.0321,0.12708 0.0107,0.0417 0.0214,0.0826 0.0321,0.12289 0.0107,0.0403 0.0214,0.0798 0.0321,0.11861 0.0107,0.0388 0.0214,0.0769 0.0321,0.11426 0.0107,0.0374 0.0214,0.074 0.0321,0.10984 0.0107,0.0359 0.0214,0.071 0.0321,0.10536 0.0107,0.0344 0.0214,0.068 0.0321,0.10079 0.0107,0.0328 0.0214,0.0649 0.0321,0.0962 0.0107,0.0313 0.0214,0.0618 0.0321,0.0915 0.0107,0.0297 0.0214,0.0586 0.0321,0.0867 0.0107,0.0281 0.0214,0.0555 0.0321,0.082 0.0107,0.0265 0.0214,0.0522 0.0321,0.0771 0.0107,0.0249 0.0214,0.049 0.0321,0.0722 0.0107,0.0232 0.0214,0.0457 0.0321,0.0673 0.0107,0.0216 0.0214,0.0424 0.0321,0.0623 0.0107,0.0199 0.0214,0.039 0.0321,0.0573 0.0107,0.0182 0.0214,0.0356 0.0321,0.0522 0.0107,0.0165 0.0214,0.0323 0.0321,0.0471 0.0107,0.0149 0.0214,0.0289 0.0321,0.042 0.0107,0.0131 0.0214,0.0254 0.0321,0.0368 0.0107,0.0114 0.0214,0.022 0.0321,0.0317 0.0107,0.01 0.0214,0.0185 0.0321,0.0265 0.0107,0.008 0.0214,0.0151 0.0321,0.0213 0.0107,0.006 0.0214,0.0116 0.0321,0.016 0.0107,0.004 0.0214,0.008 0.0321,0.0108 0.0107,0.003 0.0214,0.005 0.0321,0.006 0.0107,9.8e-4 0.0214,0.001 0.0321,3.3e-4 0.0107,-7.7e-4 0.0214,-0.002 0.0321,-0.005 0.0107,-0.003 0.0214,-0.006 0.0321,-0.0101 0.0107,-0.004 0.0214,-0.009 0.0321,-0.0154 0.0107,-0.006 0.0214,-0.0129 0.0321,-0.0206 0.0107,-0.008 0.0214,-0.0163 0.0321,-0.0258 0.0107,-0.009 0.0214,-0.0198 0.0321,-0.031 0.0107,-0.0112 0.0214,-0.0233 0.0321,-0.0362 0.0107,-0.0129 0.0214,-0.0267 0.0321,-0.0413 0.0107,-0.0146 0.0214,-0.0301 0.03211,-0.0465 0.0107,-0.0163 0.0214,-0.0335 0.0321,-0.0516 0.0107,-0.018 0.0214,-0.0369 0.03211,-0.0566 0.0107,-0.0197 0.0214,-0.0403 0.0321,-0.0617 0.0107,-0.0214 0.0214,-0.0436 0.0321,-0.0667 0.0107,-0.023 0.0214,-0.0469 0.0321,-0.0716 0.0107,-0.0247 0.0214,-0.0502 0.0321,-0.0765 0.0107,-0.0263 0.0214,-0.0534 0.0321,-0.0813 0.0107,-0.0279 0.0214,-0.0566 0.0321,-0.0862 0.0107,-0.0295 0.0214,-0.0598 0.0321,-0.0909 0.0107,-0.0311 0.0214,-0.063 0.0321,-0.0956 0.0107,-0.0326 0.0214,-0.066 0.03211,-0.10022 0.0107,-0.0342 0.0214,-0.0691 0.0321,-0.10479 0.0107,-0.0357 0.0214,-0.0721 0.03211,-0.10928 0.0107,-0.0372 0.0214,-0.0751 0.0321,-0.11372 0.0107,-0.0386 0.0214,-0.078 0.03211,-0.11807 0.0107,-0.0401 0.0214,-0.0809 0.0321,-0.12236 0.0107,-0.0415 0.0214,-0.0837 0.03211,-0.12656 0.0107,-0.0429 0.0214,-0.0865 0.0321,-0.13069 0.0107,-0.0442 0.0214,-0.0892 0.0321,-0.13473 0.0107,-0.0456 0.0214,-0.0918 0.0321,-0.13869 0.0107,-0.0469 0.0214,-0.0944 0.0321,-0.14256 0.0107,-0.0482 0.0214,-0.0969 0.03211,-0.14634 0.0107,-0.0494 0.0214,-0.0994 0.0321,-0.15003 0.0107,-0.0506 0.0214,-0.10183 0.03211,-0.15362 0.0107,-0.0518 0.0214,-0.10417 0.0321,-0.15712 0.0107,-0.0529 0.0214,-0.10645 0.03211,-0.16051 0.0107,-0.0541 0.0214,-0.10867 0.0321,-0.1638 0.0107,-0.0551 0.0214,-0.11081 0.0321,-0.167 0.0107,-0.0562 0.0214,-0.11289 0.0321,-0.17008 0.0107,-0.0572 0.0214,-0.11489 0.0321,-0.17306 0.0107,-0.0582 0.0214,-0.11682 0.0321,-0.17592 0.0107,-0.0591 0.0214,-0.11868 0.0321,-0.17869 0.0107,-0.06 0.0214,-0.12045 0.0321,-0.18132 0.0107,-0.0609 0.0214,-0.12216 0.0321,-0.18386 0.0107,-0.0617 0.0214,-0.12378 0.0321,-0.18626 0.0107,-0.0625 0.0214,-0.12534 0.0321,-0.18856 0.0107,-0.0632 0.0214,-0.12681 0.0321,-0.19074 0.0107,-0.0639 0.0214,-0.12819 0.0321,-0.19279 0.0107,-0.0646 0.0214,-0.1295 0.0321,-0.19472 0.0107,-0.0652 0.0214,-0.13073 0.0321,-0.19653 0.0107,-0.0658 0.0214,-0.13187 0.0321,-0.19821 0.0107,-0.0663 0.0214,-0.13294 0.0321,-0.19978 0.0107,-0.0668 0.0214,-0.13391 0.0321,-0.2012 0.0107,-0.0673 0.0214,-0.13481 0.0321,-0.20251 0.0107,-0.0677 0.0214,-0.13561 0.0321,-0.20369 0.0107,-0.0681 0.0214,-0.13633 0.0321,-0.20474 0.0107,-0.0684 0.0214,-0.13697 0.0321,-0.20566 0.0107,-0.0687 0.0214,-0.13751 0.0321,-0.20644 0.0107,-0.0689 0.0214,-0.13797 0.0321,-0.2071 0.0107,-0.0691 0.0214,-0.13835 0.0321,-0.20763 0.0107,-0.0693 0.0214,-0.13863 0.0321,-0.20803 0.0107,-0.0694 0.0214,-0.13883 0.0321,-0.20828 0.0107,-0.0695 0.0214,-0.13894 0.0321,-0.20842"
       style="fill:none;stroke:#000000;stroke-width:1.39999998;stroke-linecap:butt;stroke-linejoin:round;stroke-miterlimit:4;stroke-dasharray:none;stroke-opacity:1;paint-order:normal"
       inkscape:connector-curvature="0" />
    <path
       style="fill:#ffff00;stroke:none;stroke-width:1.34983134;stroke-linecap:butt;stroke-linejoin:round;stroke-miterlimit:4;stroke-dasharray:none;stroke-opacity:1;paint-order:normal"
       d="M 160.42229,458.32408 C 147.42738,456.42301 128.0569,450.99143 115.77943,445.80599 76.700396,429.30084 43.834884,398.32511 25.388701,360.61279 18.857943,347.26098 15.723119,338.76408 12.125571,324.66326 9.5679932,314.63868 9.2455574,312.32961 8.6281041,299.61672 8.2540172,291.91456 7.9421728,284.56815 7.9351167,283.29136 l -0.012829,-2.32142 H 92.682766 177.44324 l -0.52183,85.89285 c -0.28702,47.24107 -0.74647,87.17858 -1.02099,88.75 l -0.49916,2.85715 -6.41806,0.0838 c -3.52993,0.0461 -7.38234,-0.0573 -8.56091,-0.22967 z"
       id="path2171"
       inkscape:connector-curvature="0"
       transform="matrix(0.26458333,0,0,0.26458333,44.46837,105.17985)" />
    <path
       id="path906"
       style="fill:#000000;stroke-width:0.11283754"
       d="m 66.956599,195.07716 c 0.219523,-0.22282 0.154491,-0.57098 -0.208096,-1.11409 -0.958374,-1.4355 -1.274444,-2.5178 -1.19517,-4.09257 0.0648,-1.28717 0.38109,-2.25647 1.071156,-3.28262 0.502748,-0.7476 0.566039,-1.03375 0.290511,-1.31342 -0.48111,-0.48834 -1.055103,0.0166 -1.836687,1.61551 -0.48525,0.99273 -0.695515,1.97712 -0.697257,3.26432 -0.0018,1.32314 0.203843,2.25597 0.751913,3.41089 0.509792,1.07428 0.991756,1.6484 1.383789,1.6484 0.167994,0 0.365922,-0.0614 0.439841,-0.13642 z m 10.772319,-0.28989 c 0.461439,-0.56147 1.059271,-1.83558 1.293534,-2.75681 0.247055,-0.97152 0.24551,-2.77571 -0.0032,-3.74999 -0.209038,-0.81883 -0.652619,-1.78669 -1.165951,-2.54401 -0.450509,-0.66464 -0.831583,-0.81404 -1.178412,-0.462 -0.275529,0.27967 -0.212237,0.56582 0.290511,1.31342 0.690065,1.02615 1.006359,1.99545 1.071155,3.28262 0.07927,1.57477 -0.236796,2.65707 -1.195169,4.09257 -0.512122,0.76709 -0.422534,1.25051 0.231743,1.25051 0.216005,0 0.408032,-0.12482 0.6558,-0.42631 z m -14.107613,2.01358 c 0.15786,-0.2994 0.06033,-0.59259 -0.401323,-1.2065 -0.937528,-1.24669 -1.583285,-3.09142 -1.692773,-4.83572 -0.141594,-2.25582 0.459103,-4.27533 1.852392,-6.22763 0.517689,-0.72539 0.446026,-1.28252 -0.164968,-1.28252 -0.845964,0 -2.372683,2.89743 -2.738036,5.1963 -0.18817,1.184 -0.07762,3.51201 0.216296,4.55502 0.395094,1.40204 1.298345,3.15996 1.978236,3.85008 0.258997,0.26289 0.800444,0.23495 0.950176,-0.049 z m 17.792477,-0.61252 c 1.164769,-1.71023 1.676836,-3.27974 1.772608,-5.43314 0.100119,-2.25113 -0.227652,-3.78167 -1.211059,-5.65509 -0.785079,-1.49558 -1.530811,-2.17409 -1.936693,-1.76211 -0.271382,0.27547 -0.217905,0.64717 0.171638,1.19301 1.393291,1.9523 1.993987,3.97181 1.852392,6.22763 -0.109487,1.7443 -0.755244,3.58903 -1.692771,4.83572 -0.461656,0.61391 -0.559184,0.9071 -0.401324,1.2065 0.08547,0.1621 0.234458,0.23166 0.49621,0.23166 0.33889,0 0.428132,-0.0794 0.948999,-0.84418 z m -9.226847,3.3914 c -1.478382,-0.53739 -2.724603,-1.012 -2.769382,-1.05469 -0.09005,-0.0858 2.255225,-6.49458 2.376688,-6.49458 0.0641,0 0.629273,1.48092 2.982762,7.8157 0.145185,0.39078 0.226604,0.71055 0.180934,0.71059 -0.04567,4e-5 -1.292622,-0.43962 -2.771002,-0.97702 z m -4.817218,4.16414 c 0.407497,-1.30321 1.530183,-4.03427 1.648341,-4.00977 0.422224,0.0875 4.996595,1.79073 4.947324,1.84204 -0.05944,0.0619 -6.408113,2.36052 -6.573936,2.38017 -0.05035,0.006 -0.06013,-0.0896 -0.02172,-0.21244 z m 5.610178,2.22825 c -2.335838,-0.64454 -4.193284,-1.20557 -4.127658,-1.24674 0.102307,-0.0642 2.693504,-0.99194 5.928151,-2.12255 l 0.913474,-0.31928 0.698028,1.89337 c 0.383915,1.04136 0.791106,2.13637 0.904868,2.43336 0.149354,0.38992 0.168386,0.53912 0.06847,0.53686 -0.0761,-0.002 -2.049502,-0.53047 -4.38534,-1.17502 z m 7.273272,6.10475 c 0.120433,-0.12225 0.164739,-0.29312 0.125277,-0.48315 -0.03358,-0.16172 -1.720006,-4.73951 -3.747616,-10.1729 l -3.686563,-9.87887 0.265327,-0.39686 c 0.362004,-0.54147 0.367,-1.42753 0.0111,-1.96831 -0.675583,-1.02649 -2.175916,-1.02649 -2.8515,0 -0.355902,0.54078 -0.350906,1.42684 0.0111,1.96831 l 0.265326,0.39686 -3.686563,9.87887 c -2.027609,5.43339 -3.714036,10.01118 -3.747615,10.1729 -0.123935,0.59684 0.688542,0.93189 1.009944,0.41649 0.08773,-0.14068 0.671677,-1.63437 1.297664,-3.31931 0.625986,-1.68494 1.158189,-3.09643 1.182673,-3.13664 0.04666,-0.0766 11.186503,2.96545 11.304476,3.08704 0.03735,0.0385 0.34416,0.80145 0.681805,1.69546 0.337647,0.89401 0.669785,1.69382 0.738088,1.77736 0.171478,0.20972 0.602911,0.19029 0.827082,-0.0373 z"
       inkscape:connector-curvature="0" />
    <flowRoot
       xml:space="preserve"
       id="flowRoot925"
       style="fill:black;fill-opacity:1;stroke:none;font-family:sans-serif;font-style:normal;font-weight:normal;font-size:40px;line-height:1.25;letter-spacing:0px;word-spacing:0px"><flowRegion
         id="flowRegion927"><rect
           id="rect929"
           width="302.14285"
           height="55.714287"
           x="22.142857"
           y="16.475166" /></flowRegion><flowPara
         id="flowPara931" /></flowRoot>    <g
       aria-label="IRIS"
       transform="matrix(0.26458333,0,0,0.26458333,44.46837,106.76736)"
       style="font-style:normal;font-weight:normal;font-size:64px;line-height:1.25;font-family:sans-serif;text-align:center;letter-spacing:38.1900444px;word-spacing:0px;text-anchor:middle;fill:#000000;fill-opacity:1;stroke:none;stroke-width:75.59055328;stroke-miterlimit:4;stroke-dasharray:none"
       id="flowRoot933">
      <path
         d="m 41.228516,64.625 v -3.78125 h 5.96875 V 21.75 h -5.96875 v -3.78125 h 24 V 21.75 h -6 v 39.09375 h 6 V 64.625 Z"
         style="font-style:normal;font-variant:normal;font-weight:bold;font-stretch:normal;font-size:64px;line-height:1.25;font-family:serif;-inkscape-font-specification:'serif Bold';text-align:center;letter-spacing:40px;text-anchor:middle;fill:#000000;fill-opacity:1;stroke-width:75.59055328;stroke-miterlimit:4;stroke-dasharray:none"
         id="path835" />
      <path
         d="m 142.13477,41.84375 q 2.78125,0.40625 4.6875,1.84375 1.90625,1.4375 3.3125,4.15625 l 6.8125,13 h 4.78125 V 64.625 h -15.34375 l -7.4375,-14.09375 q -2.15625,-4.375 -3.6875,-5.5625 -1.5,-1.21875 -4.1875,-1.21875 h -1.90625 v 17.09375 h 6 V 64.625 h -24 v -3.78125 h 5.96875 V 21.75 h -5.96875 v -3.78125 h 26.625 q 8.125,0 12.53125,3.28125 4.4375,3.25 4.4375,9.25 0,4.875 -3.15625,7.71875 -3.125,2.8125 -9.46875,3.625 z M 129.16602,40 h 4.09375 q 4.375,0 6.71875,-2.375 2.375,-2.375 2.375,-6.78125 0,-4.40625 -2.375,-6.75 Q 137.63477,21.75 133.25977,21.75 h -4.09375 z"
         style="font-style:normal;font-variant:normal;font-weight:bold;font-stretch:normal;font-size:64px;line-height:1.25;font-family:serif;-inkscape-font-specification:'serif Bold';text-align:center;letter-spacing:40px;text-anchor:middle;fill:#000000;fill-opacity:1;stroke-width:75.59055328;stroke-miterlimit:4;stroke-dasharray:none"
         id="path837" />
      <path
         d="m 204.35352,64.625 v -3.78125 h 5.96875 V 21.75 h -5.96875 v -3.78125 h 24 V 21.75 h -6 v 39.09375 h 6 V 64.625 Z"
         style="font-style:normal;font-variant:normal;font-weight:bold;font-stretch:normal;font-size:64px;line-height:1.25;font-family:serif;-inkscape-font-specification:'serif Bold';text-align:center;letter-spacing:40px;text-anchor:middle;fill:#000000;fill-opacity:1;stroke-width:75.59055328;stroke-miterlimit:4;stroke-dasharray:none"
         id="path839" />
      <path
         d="M 276.22852,62.375 V 51.3125 h 3.96875 q 0.90625,5.25 4.28125,7.84375 3.375,2.59375 9.34375,2.59375 4.84375,0 7.375,-1.84375 2.53125,-1.84375 2.53125,-5.40625 0,-2.8125 -1.71875,-4.375 -1.71875,-1.5625 -7.09375,-2.90625 l -7,-1.71875 q -6.84375,-1.75 -9.625,-4.84375 -2.78125,-3.125 -2.78125,-8.875 0,-6.9375 4.59375,-10.78125 4.625,-3.875 12.9375,-3.875 4.09375,0 8.5,0.6875 4.4375,0.6875 9.1875,2.0625 v 10.3125 h -3.96875 q -0.90625,-4.8125 -3.96875,-7.03125 -3.0625,-2.25 -8.71875,-2.25 -4.625,0 -7,1.625 -2.34375,1.59375 -2.34375,4.78125 0,2.90625 1.625,4.4375 1.625,1.5 7.96875,3.125 l 7,1.71875 q 6.5,1.625 9.40625,5.0625 2.9375,3.4375 2.9375,9.46875 0,7.0625 -4.875,10.75 -4.875,3.65625 -14.34375,3.65625 -4.5625,0 -9.0625,-0.78125 -4.5,-0.78125 -9.15625,-2.375 z"
         style="font-style:normal;font-variant:normal;font-weight:bold;font-stretch:normal;font-size:64px;line-height:1.25;font-family:serif;-inkscape-font-specification:'serif Bold';text-align:center;letter-spacing:40px;text-anchor:middle;fill:#000000;fill-opacity:1;stroke-width:75.59055328;stroke-miterlimit:4;stroke-dasharray:none"
         id="path841" />
    </g>
  </g>
</svg>
